<mxfile host="Electron" modified="2023-10-25T02:04:10.149Z" agent="Mozilla/5.0 (Macintosh; Intel Mac OS X 10_15_7) AppleWebKit/537.36 (KHTML, like Gecko) draw.io/21.2.8 Chrome/112.0.5615.165 Electron/24.2.0 Safari/537.36" etag="CJsxSkEZgR4QLs5YrKn9" version="21.2.8" type="device" pages="4">
  <diagram name="Arquitetura AWS" id="PeA5X7Ix2_GFSgdP4TYd">
    <mxGraphModel dx="3914" dy="1214" grid="0" gridSize="10" guides="1" tooltips="1" connect="1" arrows="1" fold="1" page="1" pageScale="1" pageWidth="1654" pageHeight="1169" math="0" shadow="0">
      <root>
        <mxCell id="0" />
        <mxCell id="1" parent="0" />
        <mxCell id="UA7NpcEFcwdq0CnFsTw9-24" value="" style="rounded=1;arcSize=10;strokeWidth=2;strokeColor=#777C8F;" parent="1" vertex="1">
          <mxGeometry x="-1354" y="273" width="1072" height="624" as="geometry" />
        </mxCell>
        <mxCell id="UA7NpcEFcwdq0CnFsTw9-2" value="fnf-vpc" style="sketch=0;outlineConnect=0;html=1;whiteSpace=wrap;fontSize=12;fontStyle=0;shape=mxgraph.aws4.group;grIcon=mxgraph.aws4.group_vpc;verticalAlign=top;align=left;spacingLeft=30;dashed=0;" parent="1" vertex="1">
          <mxGeometry x="-1172" y="313" width="860" height="540" as="geometry" />
        </mxCell>
        <mxCell id="UA7NpcEFcwdq0CnFsTw9-3" value="fnf-subnet-private" style="points=[[0,0],[0.25,0],[0.5,0],[0.75,0],[1,0],[1,0.25],[1,0.5],[1,0.75],[1,1],[0.75,1],[0.5,1],[0.25,1],[0,1],[0,0.75],[0,0.5],[0,0.25]];outlineConnect=0;gradientColor=none;html=1;whiteSpace=wrap;fontSize=12;fontStyle=0;container=1;pointerEvents=0;collapsible=0;recursiveResize=0;shape=mxgraph.aws4.group;grIcon=mxgraph.aws4.group_security_group;grStroke=0;strokeColor=#147EBA;fillColor=#E6F2F8;verticalAlign=top;align=left;spacingLeft=30;fontColor=#147EBA;dashed=0;" parent="1" vertex="1">
          <mxGeometry x="-1012" y="343" width="670" height="480" as="geometry" />
        </mxCell>
        <mxCell id="UA7NpcEFcwdq0CnFsTw9-4" value="fnf-lb-security-group" style="rounded=1;arcSize=10;dashed=1;strokeColor=#ff0000;fillColor=none;gradientColor=none;dashPattern=8 4;strokeWidth=2;verticalAlign=top;" parent="UA7NpcEFcwdq0CnFsTw9-3" vertex="1">
          <mxGeometry x="50" y="40" width="250" height="410" as="geometry" />
        </mxCell>
        <mxCell id="UA7NpcEFcwdq0CnFsTw9-7" value="fnf-load-balancer" style="sketch=0;outlineConnect=0;fontColor=#232F3E;gradientColor=none;fillColor=#4D27AA;strokeColor=none;dashed=0;verticalLabelPosition=bottom;verticalAlign=top;align=center;html=1;fontSize=12;fontStyle=3;aspect=fixed;pointerEvents=1;shape=mxgraph.aws4.application_load_balancer;" parent="UA7NpcEFcwdq0CnFsTw9-3" vertex="1">
          <mxGeometry x="136" y="206" width="78" height="78" as="geometry" />
        </mxCell>
        <mxCell id="UA7NpcEFcwdq0CnFsTw9-1" value="fnf-vpc-link" style="outlineConnect=0;dashed=0;verticalLabelPosition=bottom;verticalAlign=top;align=center;html=1;shape=mxgraph.aws3.vpc;fillColor=#F58534;gradientColor=none;fontStyle=3" parent="1" vertex="1">
          <mxGeometry x="-1142" y="547.5" width="67.5" height="81" as="geometry" />
        </mxCell>
        <mxCell id="UA7NpcEFcwdq0CnFsTw9-8" style="edgeStyle=orthogonalEdgeStyle;rounded=0;orthogonalLoop=1;jettySize=auto;html=1;" parent="1" source="UA7NpcEFcwdq0CnFsTw9-1" target="UA7NpcEFcwdq0CnFsTw9-7" edge="1">
          <mxGeometry relative="1" as="geometry" />
        </mxCell>
        <mxCell id="UA7NpcEFcwdq0CnFsTw9-9" value="HTTP 80" style="edgeLabel;html=1;align=center;verticalAlign=middle;resizable=0;points=[];" parent="UA7NpcEFcwdq0CnFsTw9-8" vertex="1" connectable="0">
          <mxGeometry x="-0.6222" y="-1" relative="1" as="geometry">
            <mxPoint x="1" as="offset" />
          </mxGeometry>
        </mxCell>
        <mxCell id="UA7NpcEFcwdq0CnFsTw9-18" style="edgeStyle=orthogonalEdgeStyle;rounded=0;orthogonalLoop=1;jettySize=auto;html=1;" parent="1" source="UA7NpcEFcwdq0CnFsTw9-11" target="UA7NpcEFcwdq0CnFsTw9-7" edge="1">
          <mxGeometry relative="1" as="geometry">
            <Array as="points">
              <mxPoint x="-752" y="603" />
              <mxPoint x="-752" y="603" />
            </Array>
          </mxGeometry>
        </mxCell>
        <mxCell id="UA7NpcEFcwdq0CnFsTw9-19" value="Port 80 &amp;lt;- 3000" style="edgeLabel;html=1;align=center;verticalAlign=middle;resizable=0;points=[];" parent="UA7NpcEFcwdq0CnFsTw9-18" vertex="1" connectable="0">
          <mxGeometry x="-0.3223" y="-1" relative="1" as="geometry">
            <mxPoint as="offset" />
          </mxGeometry>
        </mxCell>
        <mxCell id="UA7NpcEFcwdq0CnFsTw9-16" style="edgeStyle=orthogonalEdgeStyle;rounded=0;orthogonalLoop=1;jettySize=auto;html=1;" parent="1" source="UA7NpcEFcwdq0CnFsTw9-7" target="UA7NpcEFcwdq0CnFsTw9-11" edge="1">
          <mxGeometry relative="1" as="geometry">
            <Array as="points">
              <mxPoint x="-652" y="588" />
              <mxPoint x="-652" y="588" />
            </Array>
          </mxGeometry>
        </mxCell>
        <mxCell id="UA7NpcEFcwdq0CnFsTw9-17" value="Target Group 80 -&amp;gt; 3000" style="edgeLabel;html=1;align=center;verticalAlign=middle;resizable=0;points=[];" parent="UA7NpcEFcwdq0CnFsTw9-16" vertex="1" connectable="0">
          <mxGeometry x="0.3131" relative="1" as="geometry">
            <mxPoint as="offset" />
          </mxGeometry>
        </mxCell>
        <mxCell id="UA7NpcEFcwdq0CnFsTw9-20" style="edgeStyle=orthogonalEdgeStyle;rounded=0;orthogonalLoop=1;jettySize=auto;html=1;" parent="1" source="UA7NpcEFcwdq0CnFsTw9-7" target="UA7NpcEFcwdq0CnFsTw9-1" edge="1">
          <mxGeometry relative="1" as="geometry">
            <Array as="points">
              <mxPoint x="-972" y="603" />
              <mxPoint x="-972" y="603" />
            </Array>
          </mxGeometry>
        </mxCell>
        <mxCell id="UA7NpcEFcwdq0CnFsTw9-21" value="Port 80" style="edgeLabel;html=1;align=center;verticalAlign=middle;resizable=0;points=[];" parent="UA7NpcEFcwdq0CnFsTw9-20" vertex="1" connectable="0">
          <mxGeometry x="0.1906" relative="1" as="geometry">
            <mxPoint as="offset" />
          </mxGeometry>
        </mxCell>
        <mxCell id="UA7NpcEFcwdq0CnFsTw9-23" style="edgeStyle=orthogonalEdgeStyle;rounded=0;orthogonalLoop=1;jettySize=auto;html=1;" parent="1" source="UA7NpcEFcwdq0CnFsTw9-22" target="UA7NpcEFcwdq0CnFsTw9-1" edge="1">
          <mxGeometry relative="1" as="geometry" />
        </mxCell>
        <mxCell id="Fzz_eKg8aY7KW-QYHHIt-5" style="edgeStyle=orthogonalEdgeStyle;rounded=0;orthogonalLoop=1;jettySize=auto;html=1;" parent="1" source="UA7NpcEFcwdq0CnFsTw9-22" target="Fzz_eKg8aY7KW-QYHHIt-2" edge="1">
          <mxGeometry relative="1" as="geometry" />
        </mxCell>
        <mxCell id="UA7NpcEFcwdq0CnFsTw9-22" value="fnf-api-gateway" style="sketch=0;points=[[0,0,0],[0.25,0,0],[0.5,0,0],[0.75,0,0],[1,0,0],[0,1,0],[0.25,1,0],[0.5,1,0],[0.75,1,0],[1,1,0],[0,0.25,0],[0,0.5,0],[0,0.75,0],[1,0.25,0],[1,0.5,0],[1,0.75,0]];outlineConnect=0;fontColor=#232F3E;gradientColor=#945DF2;gradientDirection=north;fillColor=#5A30B5;strokeColor=#ffffff;dashed=0;verticalLabelPosition=bottom;verticalAlign=top;align=center;html=1;fontSize=12;fontStyle=3;aspect=fixed;shape=mxgraph.aws4.resourceIcon;resIcon=mxgraph.aws4.api_gateway;" parent="1" vertex="1">
          <mxGeometry x="-1291" y="549" width="78" height="78" as="geometry" />
        </mxCell>
        <mxCell id="UA7NpcEFcwdq0CnFsTw9-25" value="" style="dashed=0;html=1;shape=mxgraph.aws3.cloud;fillColor=#F58536;gradientColor=none;dashed=0;" parent="1" vertex="1">
          <mxGeometry x="-1291" y="253" width="52" height="36" as="geometry" />
        </mxCell>
        <mxCell id="UA7NpcEFcwdq0CnFsTw9-28" style="edgeStyle=orthogonalEdgeStyle;rounded=0;orthogonalLoop=1;jettySize=auto;html=1;" parent="1" source="UA7NpcEFcwdq0CnFsTw9-26" target="UA7NpcEFcwdq0CnFsTw9-22" edge="1">
          <mxGeometry relative="1" as="geometry" />
        </mxCell>
        <mxCell id="UA7NpcEFcwdq0CnFsTw9-26" value="" style="image;aspect=fixed;perimeter=ellipsePerimeter;html=1;align=center;shadow=0;dashed=0;spacingTop=3;image=img/lib/active_directory/internet_globe.svg;" parent="1" vertex="1">
          <mxGeometry x="-1482" y="563" width="50" height="50" as="geometry" />
        </mxCell>
        <mxCell id="UA7NpcEFcwdq0CnFsTw9-29" value="fnf-target-group" style="fillColor=none;strokeColor=#5A6C86;dashed=1;verticalAlign=top;fontStyle=0;fontColor=#5A6C86;whiteSpace=wrap;html=1;" parent="1" vertex="1">
          <mxGeometry x="-662" y="348" width="310" height="470" as="geometry" />
        </mxCell>
        <mxCell id="tCoHn1J2rtv5zg2rPOQR-2" style="rounded=0;orthogonalLoop=1;jettySize=auto;html=1;dashed=1;endArrow=none;endFill=0;entryX=0.75;entryY=0;entryDx=0;entryDy=0;" parent="1" source="tCoHn1J2rtv5zg2rPOQR-1" target="UA7NpcEFcwdq0CnFsTw9-4" edge="1">
          <mxGeometry relative="1" as="geometry" />
        </mxCell>
        <mxCell id="tCoHn1J2rtv5zg2rPOQR-1" value="Allow API Gateway to connect to ECS" style="whiteSpace=wrap;html=1;shape=mxgraph.basic.document;dashed=1;" parent="1" vertex="1">
          <mxGeometry x="-792" y="221" width="100" height="100" as="geometry" />
        </mxCell>
        <mxCell id="UA7NpcEFcwdq0CnFsTw9-6" value="fnf-cluster-security-group" style="rounded=1;arcSize=10;dashed=1;strokeColor=#ff0000;fillColor=none;gradientColor=none;dashPattern=8 4;strokeWidth=2;verticalAlign=top;" parent="1" vertex="1">
          <mxGeometry x="-642" y="383" width="250" height="410" as="geometry" />
        </mxCell>
        <mxCell id="UA7NpcEFcwdq0CnFsTw9-11" value="fnf-service" style="points=[[0,0],[0.25,0],[0.5,0],[0.75,0],[1,0],[1,0.25],[1,0.5],[1,0.75],[1,1],[0.75,1],[0.5,1],[0.25,1],[0,1],[0,0.75],[0,0.5],[0,0.25]];outlineConnect=0;gradientColor=none;html=1;whiteSpace=wrap;fontSize=12;fontStyle=0;container=1;pointerEvents=0;collapsible=0;recursiveResize=0;shape=mxgraph.aws4.group;grIcon=mxgraph.aws4.group_ec2_instance_contents;strokeColor=#D86613;fillColor=none;verticalAlign=top;align=left;spacingLeft=30;fontColor=#D86613;dashed=0;" parent="1" vertex="1">
          <mxGeometry x="-617" y="443" width="200" height="320" as="geometry" />
        </mxCell>
        <mxCell id="UA7NpcEFcwdq0CnFsTw9-14" value="fast-n-foodious" style="sketch=0;points=[[0,0,0],[0.25,0,0],[0.5,0,0],[0.75,0,0],[1,0,0],[0,1,0],[0.25,1,0],[0.5,1,0],[0.75,1,0],[1,1,0],[0,0.25,0],[0,0.5,0],[0,0.75,0],[1,0.25,0],[1,0.5,0],[1,0.75,0]];outlineConnect=0;fontColor=#232F3E;gradientColor=#F78E04;gradientDirection=north;fillColor=#D05C17;strokeColor=#ffffff;dashed=0;verticalLabelPosition=bottom;verticalAlign=top;align=center;html=1;fontSize=12;fontStyle=3;aspect=fixed;shape=mxgraph.aws4.resourceIcon;resIcon=mxgraph.aws4.fargate;" parent="UA7NpcEFcwdq0CnFsTw9-11" vertex="1">
          <mxGeometry x="61" y="190" width="78" height="78" as="geometry" />
        </mxCell>
        <mxCell id="tCoHn1J2rtv5zg2rPOQR-4" style="rounded=0;orthogonalLoop=1;jettySize=auto;html=1;dashed=1;endArrow=none;endFill=0;entryX=0.75;entryY=0;entryDx=0;entryDy=0;" parent="1" source="tCoHn1J2rtv5zg2rPOQR-3" target="UA7NpcEFcwdq0CnFsTw9-6" edge="1">
          <mxGeometry relative="1" as="geometry">
            <mxPoint x="-512" y="373" as="targetPoint" />
          </mxGeometry>
        </mxCell>
        <mxCell id="tCoHn1J2rtv5zg2rPOQR-3" value="Allow traffic from load balancer from 3000 port" style="whiteSpace=wrap;html=1;shape=mxgraph.basic.document;dashed=1;" parent="1" vertex="1">
          <mxGeometry x="-517" y="221" width="100" height="100" as="geometry" />
        </mxCell>
        <mxCell id="UA7NpcEFcwdq0CnFsTw9-12" value="fast-n-foodious" style="sketch=0;points=[[0,0,0],[0.25,0,0],[0.5,0,0],[0.75,0,0],[1,0,0],[0,1,0],[0.25,1,0],[0.5,1,0],[0.75,1,0],[1,1,0],[0,0.25,0],[0,0.5,0],[0,0.75,0],[1,0.25,0],[1,0.5,0],[1,0.75,0]];outlineConnect=0;fontColor=#232F3E;gradientColor=#F78E04;gradientDirection=north;fillColor=#D05C17;strokeColor=#ffffff;dashed=0;verticalLabelPosition=bottom;verticalAlign=top;align=center;html=1;fontSize=12;fontStyle=3;aspect=fixed;shape=mxgraph.aws4.resourceIcon;resIcon=mxgraph.aws4.fargate;" parent="1" vertex="1">
          <mxGeometry x="-556" y="494" width="78" height="78" as="geometry" />
        </mxCell>
        <mxCell id="Fzz_eKg8aY7KW-QYHHIt-2" value="fnf-lambda-authorizer" style="sketch=0;points=[[0,0,0],[0.25,0,0],[0.5,0,0],[0.75,0,0],[1,0,0],[0,1,0],[0.25,1,0],[0.5,1,0],[0.75,1,0],[1,1,0],[0,0.25,0],[0,0.5,0],[0,0.75,0],[1,0.25,0],[1,0.5,0],[1,0.75,0]];outlineConnect=0;fontColor=#232F3E;gradientColor=#F78E04;gradientDirection=north;fillColor=#D05C17;strokeColor=#ffffff;dashed=0;verticalLabelPosition=bottom;verticalAlign=top;align=center;html=1;fontSize=12;fontStyle=3;aspect=fixed;shape=mxgraph.aws4.resourceIcon;resIcon=mxgraph.aws4.lambda;" parent="1" vertex="1">
          <mxGeometry x="-1291" y="728" width="78" height="78" as="geometry" />
        </mxCell>
      </root>
    </mxGraphModel>
  </diagram>
  <diagram name="Autenticação Anonima" id="3dO1pKGfWz8qDKWmcUSh">
    <mxGraphModel dx="3213" dy="837" grid="0" gridSize="10" guides="1" tooltips="1" connect="1" arrows="1" fold="1" page="1" pageScale="1" pageWidth="1654" pageHeight="1169" math="0" shadow="0">
      <root>
        <mxCell id="SgCDyUgoM3Ze6B39H2S1-0" />
        <mxCell id="SgCDyUgoM3Ze6B39H2S1-1" parent="SgCDyUgoM3Ze6B39H2S1-0" />
        <mxCell id="EgSVYJI0MMUz1oKlQsCv-0" value="" style="rounded=0;whiteSpace=wrap;html=1;strokeColor=#777C8F;" vertex="1" parent="SgCDyUgoM3Ze6B39H2S1-1">
          <mxGeometry x="-1463" y="171" width="1273" height="827" as="geometry" />
        </mxCell>
        <mxCell id="EgSVYJI0MMUz1oKlQsCv-1" value="&lt;b style=&quot;font-size: 30px;&quot;&gt;&lt;font style=&quot;font-size: 30px;&quot;&gt;Autenticação de Usuário Anônimo&lt;/font&gt;&lt;/b&gt;" style="text;html=1;align=center;verticalAlign=middle;resizable=0;points=[];autosize=1;strokeColor=none;fillColor=none;fontSize=30;" vertex="1" parent="SgCDyUgoM3Ze6B39H2S1-1">
          <mxGeometry x="-1466" y="109" width="507" height="48" as="geometry" />
        </mxCell>
        <mxCell id="3BnMDuSwwrUG532iEKc4-11" value="" style="rounded=1;arcSize=10;dashed=0;fillColor=none;gradientColor=none;strokeWidth=2;strokeColor=#777C8F;" parent="SgCDyUgoM3Ze6B39H2S1-1" vertex="1">
          <mxGeometry x="-1184" y="398.79" width="828" height="332" as="geometry" />
        </mxCell>
        <mxCell id="mGnSkSQ_NFk78zWQ7p8s-5" style="edgeStyle=orthogonalEdgeStyle;rounded=0;orthogonalLoop=1;jettySize=auto;html=1;" parent="SgCDyUgoM3Ze6B39H2S1-1" source="SgCDyUgoM3Ze6B39H2S1-18" target="SgCDyUgoM3Ze6B39H2S1-31" edge="1">
          <mxGeometry relative="1" as="geometry" />
        </mxCell>
        <mxCell id="mGnSkSQ_NFk78zWQ7p8s-11" value="lambda integration" style="edgeLabel;html=1;align=center;verticalAlign=middle;resizable=0;points=[];" parent="mGnSkSQ_NFk78zWQ7p8s-5" vertex="1" connectable="0">
          <mxGeometry x="-0.0945" y="4" relative="1" as="geometry">
            <mxPoint x="4" y="-6" as="offset" />
          </mxGeometry>
        </mxCell>
        <mxCell id="3BnMDuSwwrUG532iEKc4-6" style="edgeStyle=orthogonalEdgeStyle;rounded=0;orthogonalLoop=1;jettySize=auto;html=1;entryX=1;entryY=1;entryDx=0;entryDy=0;dashed=1;" parent="SgCDyUgoM3Ze6B39H2S1-1" source="SgCDyUgoM3Ze6B39H2S1-18" target="SgCDyUgoM3Ze6B39H2S1-21" edge="1">
          <mxGeometry relative="1" as="geometry">
            <Array as="points">
              <mxPoint x="-1246" y="497.79" />
            </Array>
          </mxGeometry>
        </mxCell>
        <mxCell id="3BnMDuSwwrUG532iEKc4-8" value="idToken" style="edgeLabel;html=1;align=center;verticalAlign=middle;resizable=0;points=[];" parent="3BnMDuSwwrUG532iEKc4-6" vertex="1" connectable="0">
          <mxGeometry x="-0.1673" relative="1" as="geometry">
            <mxPoint x="-25" y="10" as="offset" />
          </mxGeometry>
        </mxCell>
        <mxCell id="SgCDyUgoM3Ze6B39H2S1-18" value="&lt;b&gt;&lt;i&gt;fnf-api-gateway&lt;/i&gt;&lt;/b&gt;" style="sketch=0;points=[[0,0,0],[0.25,0,0],[0.5,0,0],[0.75,0,0],[1,0,0],[0,1,0],[0.25,1,0],[0.5,1,0],[0.75,1,0],[1,1,0],[0,0.25,0],[0,0.5,0],[0,0.75,0],[1,0.25,0],[1,0.5,0],[1,0.75,0]];outlineConnect=0;fontColor=#232F3E;gradientColor=#945DF2;gradientDirection=north;fillColor=#5A30B5;strokeColor=#ffffff;dashed=0;verticalLabelPosition=bottom;verticalAlign=top;align=center;html=1;fontSize=12;fontStyle=0;aspect=fixed;shape=mxgraph.aws4.resourceIcon;resIcon=mxgraph.aws4.api_gateway;" parent="SgCDyUgoM3Ze6B39H2S1-1" vertex="1">
          <mxGeometry x="-1151" y="438.79" width="78" height="78" as="geometry" />
        </mxCell>
        <mxCell id="SgCDyUgoM3Ze6B39H2S1-20" style="edgeStyle=orthogonalEdgeStyle;rounded=0;orthogonalLoop=1;jettySize=auto;html=1;" parent="SgCDyUgoM3Ze6B39H2S1-1" source="SgCDyUgoM3Ze6B39H2S1-21" target="SgCDyUgoM3Ze6B39H2S1-18" edge="1">
          <mxGeometry relative="1" as="geometry">
            <Array as="points">
              <mxPoint x="-1171" y="477.79" />
              <mxPoint x="-1171" y="477.79" />
            </Array>
          </mxGeometry>
        </mxCell>
        <mxCell id="jiBlH3Y3WIebYIiVabBa-0" value="POST /oauth2/token" style="edgeLabel;html=1;align=center;verticalAlign=middle;resizable=0;points=[];" parent="SgCDyUgoM3Ze6B39H2S1-20" vertex="1" connectable="0">
          <mxGeometry x="-0.5532" y="3" relative="1" as="geometry">
            <mxPoint x="53" y="-7" as="offset" />
          </mxGeometry>
        </mxCell>
        <mxCell id="SgCDyUgoM3Ze6B39H2S1-21" value="&lt;b&gt;&lt;i&gt;client&lt;/i&gt;&lt;/b&gt;" style="image;aspect=fixed;perimeter=ellipsePerimeter;align=center;shadow=0;dashed=0;spacingTop=3;image=img/lib/active_directory/internet_globe.svg;labelBackgroundColor=default;fontColor=default;labelBorderColor=none;html=1;" parent="SgCDyUgoM3Ze6B39H2S1-1" vertex="1">
          <mxGeometry x="-1433" y="454.79" width="50" height="50" as="geometry" />
        </mxCell>
        <mxCell id="mGnSkSQ_NFk78zWQ7p8s-1" style="edgeStyle=orthogonalEdgeStyle;rounded=0;orthogonalLoop=1;jettySize=auto;html=1;" parent="SgCDyUgoM3Ze6B39H2S1-1" source="SgCDyUgoM3Ze6B39H2S1-31" target="mGnSkSQ_NFk78zWQ7p8s-0" edge="1">
          <mxGeometry relative="1" as="geometry" />
        </mxCell>
        <mxCell id="mGnSkSQ_NFk78zWQ7p8s-6" value="POST /initiateAuth" style="edgeLabel;html=1;align=center;verticalAlign=middle;resizable=0;points=[];" parent="mGnSkSQ_NFk78zWQ7p8s-1" vertex="1" connectable="0">
          <mxGeometry x="-0.1122" y="-1" relative="1" as="geometry">
            <mxPoint x="13" y="-11" as="offset" />
          </mxGeometry>
        </mxCell>
        <mxCell id="mGnSkSQ_NFk78zWQ7p8s-26" style="edgeStyle=orthogonalEdgeStyle;rounded=0;orthogonalLoop=1;jettySize=auto;html=1;dashed=1;" parent="SgCDyUgoM3Ze6B39H2S1-1" source="SgCDyUgoM3Ze6B39H2S1-31" target="SgCDyUgoM3Ze6B39H2S1-18" edge="1">
          <mxGeometry relative="1" as="geometry">
            <Array as="points">
              <mxPoint x="-963" y="496.79" />
              <mxPoint x="-963" y="496.79" />
            </Array>
          </mxGeometry>
        </mxCell>
        <mxCell id="mGnSkSQ_NFk78zWQ7p8s-27" value="idToken" style="edgeLabel;html=1;align=center;verticalAlign=middle;resizable=0;points=[];" parent="mGnSkSQ_NFk78zWQ7p8s-26" vertex="1" connectable="0">
          <mxGeometry x="0.1024" y="-1" relative="1" as="geometry">
            <mxPoint x="7" y="13" as="offset" />
          </mxGeometry>
        </mxCell>
        <mxCell id="7GOPaJcTT7KWg9bpgoKD-5" style="edgeStyle=orthogonalEdgeStyle;rounded=0;orthogonalLoop=1;jettySize=auto;html=1;entryX=1;entryY=0.75;entryDx=0;entryDy=0;entryPerimeter=0;exitX=0.75;exitY=1;exitDx=0;exitDy=0;exitPerimeter=0;" edge="1" parent="SgCDyUgoM3Ze6B39H2S1-1" source="mGnSkSQ_NFk78zWQ7p8s-0" target="7GOPaJcTT7KWg9bpgoKD-4">
          <mxGeometry relative="1" as="geometry">
            <Array as="points">
              <mxPoint x="-420" y="653.79" />
              <mxPoint x="-439" y="653.79" />
            </Array>
          </mxGeometry>
        </mxCell>
        <mxCell id="7GOPaJcTT7KWg9bpgoKD-9" value="pre_token_generation" style="edgeLabel;html=1;align=center;verticalAlign=middle;resizable=0;points=[];" vertex="1" connectable="0" parent="7GOPaJcTT7KWg9bpgoKD-5">
          <mxGeometry x="0.1353" y="-1" relative="1" as="geometry">
            <mxPoint x="-22" y="12" as="offset" />
          </mxGeometry>
        </mxCell>
        <mxCell id="7GOPaJcTT7KWg9bpgoKD-10" style="edgeStyle=orthogonalEdgeStyle;rounded=0;orthogonalLoop=1;jettySize=auto;html=1;entryX=1;entryY=0.75;entryDx=0;entryDy=0;entryPerimeter=0;dashed=1;" edge="1" parent="SgCDyUgoM3Ze6B39H2S1-1" source="mGnSkSQ_NFk78zWQ7p8s-0" target="SgCDyUgoM3Ze6B39H2S1-31">
          <mxGeometry relative="1" as="geometry">
            <Array as="points">
              <mxPoint x="-652" y="497.79" />
            </Array>
          </mxGeometry>
        </mxCell>
        <mxCell id="7GOPaJcTT7KWg9bpgoKD-11" value="idToken" style="edgeLabel;html=1;align=center;verticalAlign=middle;resizable=0;points=[];" vertex="1" connectable="0" parent="7GOPaJcTT7KWg9bpgoKD-10">
          <mxGeometry x="-0.3161" y="-2" relative="1" as="geometry">
            <mxPoint x="-61" y="14" as="offset" />
          </mxGeometry>
        </mxCell>
        <mxCell id="mGnSkSQ_NFk78zWQ7p8s-0" value="&lt;i&gt;&lt;b&gt;Cognito&lt;/b&gt;&lt;/i&gt;" style="sketch=0;points=[[0,0,0],[0.25,0,0],[0.5,0,0],[0.75,0,0],[1,0,0],[0,1,0],[0.25,1,0],[0.5,1,0],[0.75,1,0],[1,1,0],[0,0.25,0],[0,0.5,0],[0,0.75,0],[1,0.25,0],[1,0.5,0],[1,0.75,0]];outlineConnect=0;fontColor=#232F3E;gradientColor=#F54749;gradientDirection=north;fillColor=#C7131F;strokeColor=#ffffff;dashed=0;verticalLabelPosition=bottom;verticalAlign=top;align=center;html=1;fontSize=12;fontStyle=0;aspect=fixed;shape=mxgraph.aws4.resourceIcon;resIcon=mxgraph.aws4.cognito;" parent="SgCDyUgoM3Ze6B39H2S1-1" vertex="1">
          <mxGeometry x="-478" y="438.79" width="78" height="78" as="geometry" />
        </mxCell>
        <mxCell id="mGnSkSQ_NFk78zWQ7p8s-3" value="1" style="ellipse;whiteSpace=wrap;html=1;aspect=fixed;strokeWidth=2;fontFamily=Tahoma;spacingBottom=4;spacingRight=2;strokeColor=#d3d3d3;" parent="SgCDyUgoM3Ze6B39H2S1-1" vertex="1">
          <mxGeometry x="-1355" y="457.79" width="20" height="20" as="geometry" />
        </mxCell>
        <mxCell id="mGnSkSQ_NFk78zWQ7p8s-4" value="2" style="ellipse;whiteSpace=wrap;html=1;aspect=fixed;strokeWidth=2;fontFamily=Tahoma;spacingBottom=4;spacingRight=2;strokeColor=#d3d3d3;" parent="SgCDyUgoM3Ze6B39H2S1-1" vertex="1">
          <mxGeometry x="-1062" y="457.79" width="20" height="20" as="geometry" />
        </mxCell>
        <mxCell id="mGnSkSQ_NFk78zWQ7p8s-8" value="3" style="ellipse;whiteSpace=wrap;html=1;aspect=fixed;strokeWidth=2;fontFamily=Tahoma;spacingBottom=4;spacingRight=2;strokeColor=#d3d3d3;" parent="SgCDyUgoM3Ze6B39H2S1-1" vertex="1">
          <mxGeometry x="-726" y="457.79" width="20" height="20" as="geometry" />
        </mxCell>
        <mxCell id="SgCDyUgoM3Ze6B39H2S1-31" value="&lt;b&gt;&lt;i&gt;fnf-lambda-authorizer&lt;/i&gt;&lt;/b&gt;" style="sketch=0;points=[[0,0,0],[0.25,0,0],[0.5,0,0],[0.75,0,0],[1,0,0],[0,1,0],[0.25,1,0],[0.5,1,0],[0.75,1,0],[1,1,0],[0,0.25,0],[0,0.5,0],[0,0.75,0],[1,0.25,0],[1,0.5,0],[1,0.75,0]];outlineConnect=0;fontColor=#232F3E;gradientColor=#F78E04;gradientDirection=north;fillColor=#D05C17;strokeColor=#ffffff;dashed=0;verticalLabelPosition=bottom;verticalAlign=top;align=center;html=1;fontSize=12;fontStyle=0;aspect=fixed;shape=mxgraph.aws4.resourceIcon;resIcon=mxgraph.aws4.lambda;" parent="SgCDyUgoM3Ze6B39H2S1-1" vertex="1">
          <mxGeometry x="-904" y="438.79" width="78" height="78" as="geometry" />
        </mxCell>
        <mxCell id="3BnMDuSwwrUG532iEKc4-5" value="1.&amp;nbsp;O client se autentica informando as credenciais (cliente_id e client_secret)&lt;br style=&quot;font-size: 16px;&quot;&gt;2. O gateway realiza a integração com o&amp;nbsp;&lt;span style=&quot;border-color: var(--border-color); color: rgb(35, 47, 62); text-align: center; font-size: 16px;&quot;&gt;&lt;span style=&quot;border-color: var(--border-color); font-size: 16px;&quot;&gt;fnf-lambda-authorizer&lt;/span&gt;&lt;/span&gt;&lt;br style=&quot;font-size: 16px;&quot;&gt;3. O lambda authorizer realiza a autenticação do usuário&amp;nbsp;anonymous-user&amp;nbsp;no Cognito&lt;br style=&quot;font-size: 16px;&quot;&gt;4. O Cognito invoca o lambda&amp;nbsp;&lt;span style=&quot;border-color: var(--border-color); color: rgb(35, 47, 62); text-align: center; font-size: 16px;&quot;&gt;&lt;span style=&quot;border-color: var(--border-color); font-size: 16px;&quot;&gt;fnf-lambda-pre-token-authorizer, para sobreposição do userAttributes&amp;nbsp;&lt;br style=&quot;font-size: 16px;&quot;&gt;&lt;/span&gt;&lt;/span&gt;5. O Lambda&amp;nbsp;fnf-lambda-pre-token-authorizer cria a claim anonimo e adiciona ao token&lt;br style=&quot;font-size: 16px;&quot;&gt;6. O Cognito gera um token de autorização assinado, contendo a claim anomimo&lt;br style=&quot;font-size: 16px;&quot;&gt;7. O client recebe o idToken do usuário anônimo" style="text;html=1;align=left;verticalAlign=middle;resizable=0;points=[];autosize=1;strokeColor=none;fillColor=none;fontSize=16;" parent="SgCDyUgoM3Ze6B39H2S1-1" vertex="1">
          <mxGeometry x="-1433" y="813" width="728" height="146" as="geometry" />
        </mxCell>
        <mxCell id="3BnMDuSwwrUG532iEKc4-12" value="" style="dashed=0;html=1;shape=mxgraph.aws3.cloud;fillColor=#F58536;gradientColor=none;dashed=0;" parent="SgCDyUgoM3Ze6B39H2S1-1" vertex="1">
          <mxGeometry x="-1162" y="374.79" width="52" height="36" as="geometry" />
        </mxCell>
        <mxCell id="7GOPaJcTT7KWg9bpgoKD-1" style="rounded=0;orthogonalLoop=1;jettySize=auto;html=1;entryX=1;entryY=0;entryDx=0;entryDy=0;dashed=1;endArrow=none;endFill=0;exitX=0.446;exitY=1.003;exitDx=0;exitDy=0;exitPerimeter=0;" edge="1" parent="SgCDyUgoM3Ze6B39H2S1-1" source="7GOPaJcTT7KWg9bpgoKD-3" target="mGnSkSQ_NFk78zWQ7p8s-3">
          <mxGeometry relative="1" as="geometry">
            <mxPoint x="-1255.1795488227856" y="357.79" as="sourcePoint" />
          </mxGeometry>
        </mxCell>
        <mxCell id="7GOPaJcTT7KWg9bpgoKD-3" value="&lt;div style=&quot;font-size: 10px;&quot;&gt;{&lt;/div&gt;&lt;div style=&quot;font-size: 10px;&quot;&gt;&amp;nbsp; &amp;nbsp; &quot;client_id&quot;: &quot;{{client_id}}&quot;&lt;/div&gt;&lt;div style=&quot;font-size: 10px;&quot;&gt;&amp;nbsp; &amp;nbsp; ,&quot;client_secret&quot;: &quot;{{client_secret}}&quot;&lt;/div&gt;&lt;div style=&quot;font-size: 10px;&quot;&gt;}&lt;/div&gt;&lt;div style=&quot;font-size: 10px;&quot;&gt;&lt;br style=&quot;font-size: 10px;&quot;&gt;&lt;/div&gt;" style="shape=note;whiteSpace=wrap;html=1;backgroundOutline=1;darkOpacity=0.05;size=15;dashed=1;align=left;fontSize=10;" vertex="1" parent="SgCDyUgoM3Ze6B39H2S1-1">
          <mxGeometry x="-1386" y="325.79" width="173" height="57" as="geometry" />
        </mxCell>
        <mxCell id="7GOPaJcTT7KWg9bpgoKD-7" style="edgeStyle=orthogonalEdgeStyle;rounded=0;orthogonalLoop=1;jettySize=auto;html=1;entryX=0.25;entryY=1;entryDx=0;entryDy=0;entryPerimeter=0;dashed=1;" edge="1" parent="SgCDyUgoM3Ze6B39H2S1-1" source="7GOPaJcTT7KWg9bpgoKD-4" target="mGnSkSQ_NFk78zWQ7p8s-0">
          <mxGeometry relative="1" as="geometry">
            <Array as="points">
              <mxPoint x="-458" y="617.79" />
            </Array>
          </mxGeometry>
        </mxCell>
        <mxCell id="7GOPaJcTT7KWg9bpgoKD-8" value="claimsToAddOrOverride" style="edgeLabel;html=1;align=center;verticalAlign=middle;resizable=0;points=[];" vertex="1" connectable="0" parent="7GOPaJcTT7KWg9bpgoKD-7">
          <mxGeometry x="-0.3463" y="3" relative="1" as="geometry">
            <mxPoint x="18" y="14" as="offset" />
          </mxGeometry>
        </mxCell>
        <mxCell id="7GOPaJcTT7KWg9bpgoKD-4" value="&lt;b&gt;&lt;i&gt;fnf-lambda-pre-token-authorizer&lt;/i&gt;&lt;/b&gt;" style="sketch=0;points=[[0,0,0],[0.25,0,0],[0.5,0,0],[0.75,0,0],[1,0,0],[0,1,0],[0.25,1,0],[0.5,1,0],[0.75,1,0],[1,1,0],[0,0.25,0],[0,0.5,0],[0,0.75,0],[1,0.25,0],[1,0.5,0],[1,0.75,0]];outlineConnect=0;fontColor=#232F3E;gradientColor=#F78E04;gradientDirection=north;fillColor=#D05C17;strokeColor=#ffffff;dashed=0;verticalLabelPosition=bottom;verticalAlign=top;align=center;html=1;fontSize=12;fontStyle=0;aspect=fixed;shape=mxgraph.aws4.resourceIcon;resIcon=mxgraph.aws4.lambda;" vertex="1" parent="SgCDyUgoM3Ze6B39H2S1-1">
          <mxGeometry x="-697" y="594.79" width="78" height="78" as="geometry" />
        </mxCell>
        <mxCell id="7GOPaJcTT7KWg9bpgoKD-13" style="rounded=0;orthogonalLoop=1;jettySize=auto;html=1;endArrow=none;endFill=0;dashed=1;" edge="1" parent="SgCDyUgoM3Ze6B39H2S1-1" source="7GOPaJcTT7KWg9bpgoKD-12" target="mGnSkSQ_NFk78zWQ7p8s-8">
          <mxGeometry relative="1" as="geometry" />
        </mxCell>
        <mxCell id="7GOPaJcTT7KWg9bpgoKD-12" value="&lt;div style=&quot;font-size: 10px;&quot;&gt;{&lt;/div&gt;&lt;div style=&quot;font-size: 10px;&quot;&gt;&amp;nbsp; &amp;nbsp; &quot;client_id&quot;: &quot;{{client_id}}&quot;&lt;/div&gt;&lt;div style=&quot;font-size: 10px;&quot;&gt;&amp;nbsp; &amp;nbsp; ,&quot;client_secret&quot;: &quot;{{client_secret}}&quot;&lt;/div&gt;&lt;div style=&quot;font-size: 10px;&quot;&gt;&amp;nbsp; &amp;nbsp;&lt;span style=&quot;font-size: 10px;&quot;&gt; ,&quot;username&quot;: &quot;{{username}}&quot;&lt;br style=&quot;font-size: 10px;&quot;&gt;&lt;/span&gt;&lt;/div&gt;&lt;div style=&quot;font-size: 10px;&quot;&gt;&lt;span style=&quot;font-size: 10px;&quot;&gt;&amp;nbsp; &amp;nbsp; ,&quot;password&quot;: &quot;{{password}}&quot;&lt;/span&gt;&lt;br style=&quot;font-size: 10px;&quot;&gt;&lt;/div&gt;&lt;div style=&quot;font-size: 10px;&quot;&gt;}&lt;/div&gt;&lt;div style=&quot;font-size: 10px;&quot;&gt;&lt;br style=&quot;font-size: 10px;&quot;&gt;&lt;/div&gt;" style="shape=note;whiteSpace=wrap;html=1;backgroundOutline=1;darkOpacity=0.05;size=15;dashed=1;align=left;fontSize=10;fontStyle=0" vertex="1" parent="SgCDyUgoM3Ze6B39H2S1-1">
          <mxGeometry x="-795" y="288.79" width="198" height="81" as="geometry" />
        </mxCell>
        <mxCell id="7GOPaJcTT7KWg9bpgoKD-15" style="edgeStyle=orthogonalEdgeStyle;rounded=0;orthogonalLoop=1;jettySize=auto;html=1;entryX=1;entryY=0.5;entryDx=0;entryDy=0;entryPerimeter=0;" edge="1" parent="SgCDyUgoM3Ze6B39H2S1-1" source="7GOPaJcTT7KWg9bpgoKD-14" target="mGnSkSQ_NFk78zWQ7p8s-0">
          <mxGeometry relative="1" as="geometry">
            <Array as="points">
              <mxPoint x="-250" y="477.79" />
            </Array>
          </mxGeometry>
        </mxCell>
        <mxCell id="7GOPaJcTT7KWg9bpgoKD-18" value="aws_cognito_user" style="edgeLabel;html=1;align=center;verticalAlign=middle;resizable=0;points=[];" vertex="1" connectable="0" parent="7GOPaJcTT7KWg9bpgoKD-15">
          <mxGeometry x="0.0649" relative="1" as="geometry">
            <mxPoint x="-19" y="10" as="offset" />
          </mxGeometry>
        </mxCell>
        <mxCell id="7GOPaJcTT7KWg9bpgoKD-14" value="" style="shape=image;verticalLabelPosition=bottom;labelBackgroundColor=default;verticalAlign=top;aspect=fixed;imageAspect=0;image=data:image/png,iVBORw0KGgoAAAANSUhEUgAAAWUAAAGECAYAAADunTGcAAAKrGlDQ1BJQ0MgUHJvZmlsZQAASImVlwdUk8kWgOf/00NCCyAgJfTeWwApoYfem42QBAglxEBoYmdxBdeCiAgoC7pUBRtF1oJYsLAI2LBukEVEXRcLNizvBw7B3Xfee+fdOZP7nfvfuffOnJlzbgAgKzL5/FRYGoA0XqYg1NuNGh0TS8WNAzwgIcMByDJZGXx6cLA/QGRe/13e3QbQjL5hMhPr37//V5FhczJYAEDBCMezM1hpCJ9A5msWX5AJAKoBsWtlZ/JnuA9hOQFSIMKiGU6c47czHD/LaPysT3ioO8IqAOBJTKYgEQCSPmKnZrESkTgkH4TNeWwuD+EchJ3T0tLZCHcirI/48BGeiU+L/y5O4t9ixotjMpmJYp7by6zgPbgZ/FRm7v95HP9b0lKF8zl0kUlKEviEIloZObPhlHQ/MfPiA4Pmmcue9Z/lJKFPxDyzMtxj55nN9PATr00N9J/nBK4XQxwnkxE+z5wMz7B5FqSHinMlCNzp88wULOQVpkSI7Ukchjh+XlJ41DxncSMD5zkjJcxvwcddbBcIQ8X1c3jebgt5vcR7T8v4br9chnhtZlK4j3jvzIX6OTz6QsyMaHFtbI6H54JPhNifn+kmzsVPDRb7c1K9xfaMrDDx2kzkQi6sDRafYTLTN3iegQfwBP7IoIIwYAWsgSUyPEAU8AYgk5OTObMh93R+roCbmJRJpSMvjUNl8FimxlRLc0srAGbe7dy1eDM8+x4hBfyCrbAWACcZ5P42LNj8kZqOmgAgHbpg03qMPMkeAM5YsoSCrDkbeuYHA4hACsgBJaAGtIA+MEGqswWOwBWp2hcEgXAQA1YAFkgCaUAAskE+2AAKQTHYAXaDClANDoAGcBgcAx3gFDgHLoFrYADcAveBCIyB52ASvAPTEAThIDJEgZQgdUgHMoIsIRrkDHlC/lAoFAPFQYkQDxJC+dAmqBgqgSqgGqgROgqdhM5BV6BB6C40Ak1Ar6FPMAomwXKwKqwLm8E0mA77weHwcjgRXgXnwQXwNrgcroUPwe3wOfgafAsWwc/hKRRASaAUUBooExQN5Y4KQsWiElAC1FpUEaoMVYtqQXWhelE3UCLUC9RHNBZNQVPRJmhHtA86As1Cr0KvRW9FV6Ab0O3oC+gb6BH0JPorhoxRwRhhHDAMTDQmEZONKcSUYeowbZiLmFuYMcw7LBargNXD2mF9sDHYZOxq7FbsPmwrths7iB3FTuFwOCWcEc4JF4Rj4jJxhbi9uEO4s7gh3BjuA14Cr463xHvhY/E8/EZ8Gb4JfwY/hB/HTxOkCToEB0IQgU3IJWwnHCR0Ea4TxgjTRBmiHtGJGE5MJm4glhNbiBeJD4hvJCQkNCXsJUIkuBLrJcoljkhclhiR+EiSJRmS3EnLSELSNlI9qZt0l/SGTCbrkl3JseRM8jZyI/k8+RH5gyRF0lSSIcmWXCdZKdkuOST5UoogpSNFl1ohlSdVJnVc6rrUC2mCtK60uzRTeq10pfRJ6TvSUzIUGQuZIJk0ma0yTTJXZJ7K4mR1ZT1l2bIFsgdkz8uOUlAULYo7hUXZRDlIuUgZk8PK6ckx5JLliuUOy/XLTcrLylvLR8rnyFfKn5YXKaAUdBUYCqkK2xWOKdxW+LRIdRF9EWfRlkUti4YWvVdcrOiqyFEsUmxVvKX4SYmq5KmUorRTqUPpoTJa2VA5RDlbeb/yReUXi+UWOy5mLS5afGzxPRVYxVAlVGW1ygGVPpUpVTVVb1W+6l7V86ov1BTUXNWS1UrVzqhNqFPUndW56qXqZ9WfUeWpdGoqtZx6gTqpoaLhoyHUqNHo15jW1NOM0Nyo2ar5UIuoRdNK0CrV6tGa1FbXDtDO127WvqdD0KHpJOns0enVea+rpxulu1m3Q/epnqIeQy9Pr1nvgT5Z30V/lX6t/k0DrAHNIMVgn8GAIWxoY5hkWGl43Qg2sjXiGu0zGjTGGNsb84xrje+YkEzoJlkmzSYjpgqm/qYbTTtMX5ppm8Wa7TTrNftqbmOean7Q/L6FrIWvxUaLLovXloaWLMtKy5tWZCsvq3VWnVavrI2sOdb7rYdtKDYBNpttemy+2NrZCmxbbCfstO3i7Krs7tDkaMG0rbTL9hh7N/t19qfsPzrYOmQ6HHP4y9HEMcWxyfHpEr0lnCUHl4w6aToxnWqcRM5U5zjnn51FLhouTJdal8euWq5s1zrXcboBPZl+iP7SzdxN4Nbm9t7dwX2Ne7cHysPbo8ij31PWM8KzwvORl6ZXolez16S3jfdq724fjI+fz06fOwxVBovRyJj0tfNd43vBj+QX5lfh99jf0F/g3xUAB/gG7Ap4EKgTyAvsCAJBjKBdQQ+D9YJXBf8agg0JDqkMeRJqEZof2htGCVsZ1hT2LtwtfHv4/Qj9CGFET6RU5LLIxsj3UR5RJVGiaLPoNdHXYpRjuDGdsbjYyNi62Kmlnkt3Lx1bZrOscNnt5XrLc5ZfWaG8InXF6ZVSK5krj8dh4qLimuI+M4OYtcypeEZ8Vfwky521h/Wc7couZU9wnDglnPEEp4SShKeJTom7EieSXJLKkl5w3bkV3FfJPsnVye9TglLqU76lRqW2puHT4tJO8mR5KbwL6WrpOemDfCN+IV+0ymHV7lWTAj9BXQaUsTyjM1MOaZD6hPrCH4QjWc5ZlVkfsiOzj+fI5PBy+nINc7fkjud55f2yGr2atbonXyN/Q/7IGvqamrXQ2vi1Peu01hWsG1vvvb5hA3FDyobfNppvLNn4dlPUpq4C1YL1BaM/eP/QXChZKCi8s9lxc/WP6B+5P/Zvsdqyd8vXInbR1WLz4rLiz1tZW6/+ZPFT+U/ftiVs699uu33/DuwO3o7bO112NpTIlOSVjO4K2NVeSi0tKn27e+XuK2XWZdV7iHuEe0Tl/uWde7X37tj7uSKp4lalW2VrlUrVlqr3+9j7hva77m+pVq0urv70M/fn4RrvmvZa3dqyA9gDWQeeHIw82PsL7ZfGOuW64rov9bx6UUNow4VGu8bGJpWm7c1ws7B54tCyQwOHPQ53tpi01LQqtBYfAUeER54djTt6+5jfsZ7jtOMtJ3ROVLVR2oraofbc9smOpA5RZ0zn4Enfkz1djl1tv5r+Wn9K41TlafnT288QzxSc+XY27+xUN7/7xbnEc6M9K3vun48+f/NCyIX+i34XL1/yunS+l9579rLT5VNXHK6cvEq72nHN9lp7n01f2282v7X12/a3X7e73jlgP9A1uGTwzJDL0LkbHjcu3WTcvHYr8Nbg7Yjbw3eW3RENs4ef3k29++pe1r3p++sfYB4UPZR+WPZI5VHt7wa/t4psRadHPEb6Hoc9vj/KGn3+R8Yfn8cKnpCflI2rjzc+tXx6asJrYuDZ0mdjz/nPp18U/inzZ9VL/Zcn/nL9q28yenLsleDVt9db3yi9qX9r/bZnKnjq0bu0d9Pviz4ofWj4SPvY+ynq0/h09mfc5/IvBl+6vvp9ffAt7ds3PlPAnG0FUMiEExIAeF0PADkGAMoAAMSlc331rEBz/wVmCfwnnuu9Z8UWgCZEBbgi3c16hBGt3Y30JMgMRjjcFcBWVuI53wPP9uszIn0IgEFjcw//yEdsbD74h8z18t/V/U8NxFH/pv8FQQUGHjY9QFgAAABWZVhJZk1NACoAAAAIAAGHaQAEAAAAAQAAABoAAAAAAAOShgAHAAAAEgAAAESgAgAEAAAAAQAAAWWgAwAEAAAAAQAAAYQAAAAAQVNDSUkAAABTY3JlZW5zaG90WnRrNgAAAdZpVFh0WE1MOmNvbS5hZG9iZS54bXAAAAAAADx4OnhtcG1ldGEgeG1sbnM6eD0iYWRvYmU6bnM6bWV0YS8iIHg6eG1wdGs9IlhNUCBDb3JlIDYuMC4wIj4KICAgPHJkZjpSREYgeG1sbnM6cmRmPSJodHRwOi8vd3d3LnczLm9yZy8xOTk5LzAyLzIyLXJkZi1zeW50YXgtbnMjIj4KICAgICAgPHJkZjpEZXNjcmlwdGlvbiByZGY6YWJvdXQ9IiIKICAgICAgICAgICAgeG1sbnM6ZXhpZj0iaHR0cDovL25zLmFkb2JlLmNvbS9leGlmLzEuMC8iPgogICAgICAgICA8ZXhpZjpQaXhlbFlEaW1lbnNpb24+Mzg4PC9leGlmOlBpeGVsWURpbWVuc2lvbj4KICAgICAgICAgPGV4aWY6UGl4ZWxYRGltZW5zaW9uPjM1NzwvZXhpZjpQaXhlbFhEaW1lbnNpb24+CiAgICAgICAgIDxleGlmOlVzZXJDb21tZW50PlNjcmVlbnNob3Q8L2V4aWY6VXNlckNvbW1lbnQ+CiAgICAgIDwvcmRmOkRlc2NyaXB0aW9uPgogICA8L3JkZjpSREY+CjwveDp4bXBtZXRhPgpFyI3+AABAAElEQVR4Ae2dB3xc13WnDzCYPugEwQb23nsRm0hJpET1blkuimQ765I4XmeTjZ2NnXXiXXttK4mTOLEtRZYtS7KK1UWJIimKvfdeQYIkCIKo02cA7DlvNOQQxGDe9Pdm/vcnajAz771773fvnHffuacUPDXrTBehgAAIgAAIaIJAoSZagUaAAAiAAAgoBCCUMRFAAARAQEMEIJQ1NBhoCgiAAAhAKGMOgAAIgICGCEAoa2gw0BQQAAEQgFDGHAABEAABDRGAUNbQYKApIAACIAChjDkAAiAAAhoiAKGsocFAU0AABEAAQhlzAARAAAQ0RABCWUODgaaAAAiAAIQy5gAIgAAIaIgAhLKGBgNNAQEQAAEIZcwBEAABENAQAQhlDQ0GmgICIAACEMqYAyAAAiCgIQIQyhoaDDQFBEAABCCUu82B2StstOgRB5ltBd2+wVsQAAEQSD8BCOVujCv7F9Fjf15BX/9JXxoy0Qzh3I0P3oIACKSXAIRyFL7jZ1rob3/dj+79ahnVjDNBOEfhhI9BAARSS6AotZfLrasV8C3r1odLaMIsK21Z5aSdqz3UeDZAnZ251U/0BgRAQDsEIJRjjEUhC+aBw4101xfLaOwMK+1Y46Kdq9zkboVkjoEOX4MACCRAAEJZJTSzpYAmsEpj8EgjTVtoo0/ebKc9azwqz8ZhIAACIKCOAISyOk5XjyouM9CkOVYaPt5E2+e6adWL7dRwOnD1e/wBAiAAAskQwEZfAvRE1+woNdCS+4rpW09X0bx7HGQvA8oEUOIUEACBbgQgSboBifdt1QAjPfW3lfTVH1XRiOlmKqs2xHsJHA8CIAACVwlAKF9FkdwfY6dZ6C9+2pce+rNyGjvPQrZSoE2OKM4GgfwkAJ1yCsfdai+k2bfaaCjbNe/b7KFN77rowjE2oevoSmEtuBQIgEAuE4BQTvHoFhYWUL8aI1X0LaJxMyy0kQXz2pfaqSMIwZxi1LgcCOQkATxjp2lYTeYCqhlhovu/Ukrf/U0/GjXLkqaacFkQAIFcIgChnObRNFsKafAoE337n/vSV39SRUMnm8lQVEAId5Rm8Lg8COiUANQXGRq4IhbEMxaxvnm0iVa/xo4n6zx0mV22u+AYmKERQDUgoA8CEMoZHqfKfkV035fKaNI8K+ubnXRku5da6jsy3ApUBwIgoFUCEMpZGBnRN4+bbmGvQDPt2eimLStddHSrl/xebAZmYThQJQhoigCEchaHQ+JpzFpip+HjzHRoh4c2vO2iswf9sNTI4pigahDINgEI5SyPgEShqxpQRPPvcNDY6VbavtpF7z3TilVzlscF1YNAtgjA+iJb5LvVW2QsoOpBRRwitJS+81w/mrLUGrLSgJlGN1J4CwK5TQBCWYPjO2i4ib72D1X0xPcracgkM1nYUxAFBEAgPwhAfaHRcRZb5nnL7DR2mpk+edtJ+zd56NyhAPTNGh0vNAsEUkUAQjlVJNN0nfKqIrrz86U0dYGNtnzopH3rvXQJ8ZvTRBuXBYHsE4BQzv4YxGyB6JuHsNNJ34FlnPXETxvfc9GOD93kc8HzJCY8HAACOiMAoayjAZModKMmW2jgMBNNmW+lt37dSnVH/DrqAZoKAiAQiwB2kGIR0tj3BWyNYS8ppOnssv3Xv6imFV8uJbMNJhoaGyY0BwQSJgChnDC67J8oK+cHvlxGf/e7/rT40WJyVBRSoQECOvsjgxaAQOIEoL5InJ1mzqweZKTHv1VBY9hSY9sqN53Y5SVnM/TNmhkgNAQE4iAAoRwHLC0fKp6Bs5faacwUC+1c56btH7no9F4/BQOIp6HlcUPbQKA7AQjl7kR0/r600kCLObv26Klm2vmxm9a85CRXC6LQ6XxY0fw8IgChnIODLY4n4hXYp38RzeSAR2tea6NtK93kaYNKIweHG13KMQLY6MuxAY3sjsVayOZzRvrMn1fQ139cRSNnmCO/xt8gAAIaJAChrMFBSXWTjKYCjkBnoa/9sIoe+u/lVM2CWlbTKCAAAtojAPWF9sYkbS0qKTfQ7Z8poYmzLfThi+10cp+4bAfTVh8uDAIgED8BrJTjZ6b7M0Tf/OR3K+mxb1fQ9GU2spdjGuh+UNGBnCGAlXLODGX8HZkwy6q4bB/krCe71rrpiKSk8sCELn6SOAMEUkcAQjl1LHV3JXHZLq8y0Lzb7DRhpoV2feKm9/6rnVoboNLQ3WCiwTlDAM+tOTOUiXdENv0kROiS+4rph6/0p5I+hsQvhjNBAASSIgChnBS+3DpZ4maYxYxutDG3OobegICOCEAo62iw0FQQAIHcJwChnPtjjB6CAAjoiACEso4GK9tNVTJuDzeSiVUcKCDQnYCBM+SYLHBK6s4l3vewvoiXWB4fX2QuoIUc7MjqKKQPftdGDWcCeUwDXY8kUDmoiKYsslLrlQ7a97GHAj6YVkbyiedvCOV4aOX5sWJCV1JhoDm32mjiHAu9x4J5w+tO6kB40LyeGRMWWmn+CjsVsTv/4R1eKiyU1TKEcqKTAkI5UXJ5fJ6Y0FVWF9Hn2SNw5hIbvfSzZrp8LkABbxd14beY8zNDbs6iqhg62UTTFtuomlfJKKkjAJqpY5mXVxrHgY7+9tl+tPF9J23mLNvnjwXIiyzbOTsXzLZCqhhgoJFTzDSGx97SLT9kJ4fu7uzEnTmZCQChnAw9nKsQkCh0i+5yKFlPNn/oor3r3XTxRIDkB4qSOwREbzyaBfFoTjtWXNbzZm9HsAvjnuSQQygnCRCnhwiI40n/oUZa8TmOQsf65u1r3LTlHRd52hFYX+9zRFbHo2eaaRQL4341Rk7OG71HRt4MFisdEc4oiRGAUE6MG86KQsAiP2DOEziAYzZPW2Sjj//YTrs+dEc5Gh9rmYA8AdWMN9HYWaHxtFhh7paJ8YJQzgTlPKzDUWKgcdMNNHikkcZzNLr3nmulpvMIdKSXqeBgK5tbPlNM1TVFJKtf2dxTU7zuTvJ78XSkhlW0YyCUo5HB50kTkB+yo9RAN9/roCnzrbTm9Xb65NV2crd2wkojabqpv4CMl5i1TVlqoxmLrYowjrcWeVIyWQrJ54Fgjpdd+HgI5TAJvKaVQDlHnnvwK2U0ibOerHyhjU4f8FM7OxqgZJ9AIe/ZWUsKqc9AI829w0ZVAyEWsjkqoJ9N+nlY9+ipFhoxyUyb3nfRlg9cVHvQT14nVlXZmgqyMh4wykjjWG88ZKyJTKyqSKaII1FHBzb5kmEIoZwMPZybEAEDW2rMX+HgDUEz7dnooY1vO6n+JJvQQTYnxDPRkwaOMdGwCSZFGEuyg1QURRxDJieFEkI5KXw4OVEC8shczeZVSx8oojFTzbSXhfPaPzjJ2QyVRqJM1Z5nLS6kqUutNHyCmUorDewWrfbM2MeJOZx4fAbheh8bVpQjIJSjgMHHmSEgZldDx5ppwFATTZpno1UvtdH2la7MVJ5ntUh0v1EzzMzZQuV9DYrwzDMEuuguhLIuhin3GykhH4ezTeyX/q6S5iy30+u/aKZ68QqESiPpwZeVsJ1N3ObfY6eRrM9PZxEXe1heJEcYQjk5fjg7xQTk0Xcqm88N4rjNq/7QRvs2eKj5QgcehxPgLCxt7A49dYmVRrEwtrHaIt3FYi9UUopBMCdOGkI5cXY4M40E+vQvose+WUGzbvHRBt4IPLbLSw21cD5Ri7yU1RODRptoHGcp7zcEP3O13LRwHEZLC6OANkQlMHKimVfNJjqyy0ObWNd8bIePnE3YDIwGzMSu0DXj2DV6hoVq2NRNNt4yWQL+Lgoi7kVSyCGUk8KHkzNBQMJDTr7JxkJGhLOX1r7qpLOH/ByNDLZXkfyHc8Cg4RNNNGiEiezsDKLWNTryGsn+LfpriXGP22biJCGUE2eHMzNIQH7sElh/zq12Gs+P5NvXuumVnzbDXZvHwF5moGmsNx7DlhVmtrBIpYlbvEMsemyJGIjMI/GSu3Y8hPI1FvhLBwTkcby8qoiWPVJCc26x069/0EhHNnvzUjhbOFeiOIDMX2FT0nRpYvj44QXPL8mNBIRycvxwdhYJiOPDN/9fXzrIeeFWs6XGqb1+8rFJVq6npBLX6L5Di2gGBw6qGWnqNb5xpofHxxHiAj7YMSbDHUI5GXo4N+sEZOU8ZZ6VakYYaQtnPdnFao1aDnaUi4JZQmhWcrAgsaqYulBSMaXfxC3eARb1icmMKHHxcos8HkI5kgb+1i2Bir5FnPWklMax1cG21W7azcK58VzumNCVcGyKMaxLH8XxQiqqUxOnQreDneMNh1DO8QHOt+4NGxcyoZs4lzcDP3LTtvfd5NdxbF+JUzGKUzFJv/qzyiLTJm7xzh+/r4vELA4lcQIQyomzw5kaJSCP+eNnWGnIaDNNXWClVS+304ldPpKwknoqVUOMtIBdo/sMKCIzu6HrochNw2DkjNawiUt4uCCUE0aHE7VMQMl6wra6U+bbaORkC8dudtKr/9xCQR2s4op5A3P+PQ4awTbHBdpTG/c67CE7ZZjE9QopxpcQyjEA4Wt9EwgL51sfLqHxs630/u/aaP8nbiUllZaCHUmGaIkbMZjjG990hz0jcSrSMbJdbHjRlYu7rOmAFeWaEMpRwODj3CMwgNUBX/yrCtq7wMLxNFx0ap+PXC3ZN98Se+NBY4w0ka1I+g3Wvt64t5mhuFkHejsC38UiAKEcixC+zykCovOcsZhDWE4UKw0X7d/koaPbWN+chXgNZjZpGzjaSIPZAWQox6twlOpMV9HDzJAQrBIj2+fRl/6+h65k7SMI5ayhR8XZJCCOJ0seKKZJc620cx1baXzopvNH/RlrUmVNEU2Yw9k/WG+cC8I4Y+DyoCII5TwYZHSxZwJFHKeh32Aj3cb65ikcw/kTDhG66U1XWhO5imWImLhNuslKFTmY/UPiKMOjr+f5pvZTCGW1pHBczhKQR24JD/rI18tpHmc9efmfm+nETl/K+zuAXaLn3Wnj3IRFnwbtSXkVWb+g2VJIRezRp2fb8GxDhFDuNgJrX3ZSO2/+LH+shKrYPlRWUyj5QUDGehjnC/yLn1bT6tfaaN1rPBc4dnPAm7h+VOJUSIzjZZ8roUEj2YA31wv/XPCLSW6QIZS78fM6O2kD/xh3r/bQvf+tVAkWXs3xBiQkIUp+EJD4zXd+vpRmc5jQ9azS2PGRi67UdcS1GSj2usV9DDRyupkms1WFxDfOhyIxrjs7E7+J5QOjWH2EUI5CyNXSQS/+qImG849q3u12mjDLyvF8OR27Eis2ykn4OKcIVHFKqvue4hvzdLbUWMWWGpwvsPVybFe1Yk5SOmiskUZNNdNAzjVoyKM508F44M2X3M8AQrkXfmIDf5J1ixc5q/KBGV6au9ymZMAw8WYNSn4QkJuwBNWvYdXDuFkW2vS+i45u8UZN5FrDzh9T2LVbNhBlxZ1vRczhxOwwGyaGucIaQlnFSLpbO2nfOg/VHvLRxndd9Og3y6lfTR7oB1WwyZdDijm7x6wldrKy192Z/T4Kttz4iG4vZzO7B4uppDw/VBX5MvaZ7ieEskrioitrru+glgYPndjtowUPOOjuL5aSjb2xUPKDgLhC29nBI1o8CtkozHeB7HV3kp8D3aMkTgASJU524tvvae+kVb9po3948qLieOBl20y4+8cJMgcPR8wHjt/BXoomNotDSZwA6CXOjhrOBOmZv7tCv/m/TXRiv5dklYCSvwTcbRj//B391PUc6oskWYqR/Hbe/Kk94qdpi600ic2fRk4wk9inouQXAXspMoIEOWZ1B6v6UBInAKGcOLvrzmw4HaAP+N+BzR6avcxO0xfZqD9HJUMBgbwjAJmc1JBDKCeF78aTLxwL0MoLbbSPbVoXcKDyWZxx2MLJJFFyn4CrNbYNc65TUDKP8IanrJhREiMAoZwYt6hnyYafbASe2uOj8yyg92700N1PlHJqIlPUc/BFbhCQfHooIJAsAcyiZAlGOV+Es9fVSXs4eecPPneR3vqvVmpq6GBvJ6wgoiDT/ceFhdhHgElc8tMYQjl5hqqu8M5/ttDP/6qBNrzvpOZGFs7YqFfFTU8HwYsNJnGpmK8QyqmgqOIaIoTPHfJzPI1mevHpJtq9nuP2woROBTn9HOJPIpqcfnqJlqabAHTK6Sbc7foBXxftWuWmU+yqO/EmL81hS40R481scI9H326odPfWCu9OCuXog4oumckLoZwMvSTObWGX7Q2vO+nkXhHOVrr5fgdVD4IJXRJIcaoGCBj42Vvc0TuCGmiMTpsAoZzlgas/GaDGuiDt/cRDtzxWTAtW2EmyN6Doj4AExM/3UsjmcKENT6yWE50L+PUnSi5F58nUFZVGQ22AXmR37Z9+s4HqWFDDKypFgDN4GYmjnPeFJzTEcXKzAEI5OX4pP/sUR6D7/mMX6OV/aab6swHyIeJWyhnjgukjIPM16INpUTKEob5Ihl4az137Ujsd2uqlhfc5lEzLkgUDKanSCDwFl0YWZyIze68aOXGqZLVGSYwAhHJi3NJ+ljif1J8K0Du/bqWD2zyc8cRKc26xUzEHUkfRJgGkQdLmuOitVRDKGh8xD4eDPLTBS7UH/HR8j59m3WqjmTfbNN7q/GyemWMJ53sRW20xi0NJnACEcuLsMnqmq4Vdtte46dhOL+1a51biaSAKXUaHAJWpIBDK0UfkhyGKClo9H4Jbe89cNPmpuPG2X+mgbZwn8Gm20lj9Whu5ndDdaWWwWi/DOFdSZRUUwBEqmTkJoZwMvSye23QhqLhs//J7jXRgq4dcHJkOJbsESqvw4CnhBJAWK7l5iFmUHL+sn31gvYdO7fPRzGU2mn2rnYaNM8H5JOujkr8NCLI+ORjI3/6noucQyqmgmOVruFs7af0rTjq4yUvz7gplPRk43EgGAx4jMzk0PgSYUmK4iF7Z58FmX6JzD0I5UXIaO09+AlfOB+nD59tCKal41byIM59IdmGUzBCQmA8oIJAsAQjlZAlq7Hw/r1DO7PPTJc60vZvjadz5xRKaOMeqsVbmZnPEaSLfiziN+OHRl9Q0wCxKCp92Txb75hM7vPQvf3GZfvyNS9R4EZYB2h2t3GmZBNPCzSm58YRQTo6fps8WlYaknzq2zUs/fKqe3nm+VRHOnZ3Q96Vj4BAljqnyNgZ2MpKbXVBfJMdPN2e3cQqqN/61hfZzItdbHy2mkZMsVF4FJWgqBxBR4iSOchfyUCY5qSCUkwSot9NPchQ6ybI9aaGF5q1w0MiJZrIhY4behlGz7RU7ZeSfTG54IJST46fLsyXL9vaVbqo94qfxvAm48G4HiQldEQcoR0mcgAcOPBRysy5QVsyJk8zvMyGU83j8G9hCo/mik05wSqrZy210873FWDUnMR9MVtzUksCHUz8lAKGc51NBsp6cP+qnN08EaN1rTnrs2+V5TiTx7iPeNZE8hfkRSznxScRnQignhS83TpbYzbJBc4VzBf7rty7nRqey0AtYtRBZ7IVk4kD3CHKf+ASESVzi7HAmCFxHADrl63DgTYIEIJQTBIfTQKA7AXspTAyDgS5s8nWfGHG+h1COExgOBwEQiE5A2erEfmd0QCq+gVBWAQmHhAgEONXPkV1eamtGWome5oSrJb+5yLyoOxmgTt6fQEmcADb6EmeXd2fKo+lWznpyjq017vlyKU2ea0WG7YhZYCvN3zXOMXZK2r7KTa0NQTiPRMyJRP6EUE6EWh6f08GC+dxhP/3bf79Ms26308PfKKPiMoPiNJDHWJSu51sapCCviJsuddCq37VTcz0CXqVq/kMop4pkHl5n+0oXHd7qpVseK6apC6zUb7Axr4WzPEnkQ5EgVyKMj/Lq+NAmD/nc+dHvTI0thHKmSOdoPU7WI771ixZ+dHXRovsdNIlVGlUDjFSYh0/y4oiT66W5oYPOHvfT0R0+ajiDvE/pGG8I5XRQzbNrivPJheMBevMXrbSPo9DNvs1Oc/lfkTG/tuGtORzYSdRWZ3gvYf8GLydQCFA+3ICy9TOGUM4W+RysV5wnDm30KlHo9m7w0G0cInT0FEsO9jS/unT2mJ/28Xg2nu8gZ1N+W5hkYuQhlDNBOc/qaL3cQXvXuOkE6xwXPuCgJfcV50Xs5vYrubXZ5eab7D6+yR7hJAli7idPRCjpJwChnH7GOVNDAWsjiswF1MUxc+VxtrcfqcTUbb/SQe/9ilUa6z10z1OlNG6GRYmNINfJxVJcmRs/J9mwPMNhXde/5iJXK1bGmZ6ruTGLMk0tT+uzsM707q+UcmYJoq0fuOgiOwoE/bGXT3X8A3/2+1do8s1Wuvk+Bw0abiJbcR7uBGp83ridndRU30EHtnjoxE6fxlubu82DUM7dsU1Lzxwc3+Emtk8eP8tC699x0gHe2Lt8NvZju4R03MaOJwd41XzTvXaadYudhowy5dRmoN/Ljwc6LLIyvnyhgw5v99Cx7T5VN1oddlM3TYZQ1s1Qaauhg1mgPvK1csUEbs8GN3v6udleNbZQcnOW7dUvtNOxXT6ascRG0xfbqO+gIjIY9K/T6E2do63Ru9aaJjZxO8w6Y/HSbOZVsoRwRckuAQjl7PLXde1G1i9Pnmel4eNNysp503vsTLLFSxIjo7ciOumzB/3UUBukA+x8MmeZjW5abicTp6fXczFzHGG9FFE7HeYb4yFWVTTxKln2CFC0QQBCWRvjoOtWiEpj+iIbjZhgod3r3fT+c63KqitWp7yswzyx00uic17/poue/F+VNHCYMdZp+D4JAiJ8r7A33po/tJNkOPd7IIyTwJmWUyGU04I1/y5aWFigmL0tfaCYJsy20LvPt9E2XjnHstKQVbPYN9ce8NHfP3aBFj5UTPc8WarE09CbV2BbY2zderZmhqhWWtkaZuca3sTjSH9w/sjWSMSuF0I5NiMcESeB6kFGevI7lTT7Vhu995s2Os9uua6W2PpmMaNbxyu4Q1s9tOKLpTSRXbZLKwy6cdku6aO9n5Pc9NpbO+nkfh/t4ihuHn46QdE2Ae3NIm3zQuviIDBxtuibzbR5pZN2sDPJucMBJbFmrEtcZl3ziz9upnFz3TRjqY2m3GQje4l+9LWx+pep7z0utjc+5FMCB9VxZD8UfRCAUNbHOOm2lTa2bb6ZPfrGz7LSjrUu2vWxh84dii0gxLxsLx97ZBsLleU+mrrQShP5GrK5qNUiZn9aKD7WE0uw+drDvpCJGzbxtDAsqtsAoawaFQ5MlIChqID6DzHSskdLaBJba2xb7ab1rzvJw+ZxsYqY2W38o5OObPfShLkeWso6Z3E+0WIxZHmPUvTGTZeCdJgdP06yi7uLI/iJSghFXwQglPU1XrpurZiMDR1jpn41RprGK983ftlKR9kkTk25UhekTW+5SDJcLLzHQYvvdZDFpi2VhtGUvfaIGeIudsw5zCZuXmcXHEDUTCqNHgOhrNGByeVmiTAdNclC3/yJmTa856R3n2mlNg5iFMv5Qmxr6/mx/JWnm2kfB1d/8GtlNGysmXI1loaaOSDM6msD9MkfXexZifjGaphp/RgIZa2PUA63z8T64aX3F/NGnpXWveWkTW87qb2xU5VXmaywf7i1npY/UUJzl9mpmlffcr1sFgn4n6kS4BuUmLiJjv4UPz3kS9aTTPHNZj0Qytmkj7oVApXVRfTAl8toAsfTWPOak07u8VILOzioKat+20YHNnlp7gqb4vLdn1NSiQ47G8VRbshItZfOBek0W1Wc2udnbzzt2kZnBEYOVgKhnIODqtcujeGA+CJUD2zz0HbeDDzOKYdiWTRIxLrzHIT9Tc6GIVlP5vCqeQ4HO8rFLCBOtvWWkJoHWW8sZoMouUkAQjk3x1WfveIFbgk7i8xd5qCRrHOWQEfiDtzIK8NYRfTNxznCWf2poJIlYzGb4Y2dbiGzNXOrZnebutV9rL50/15UFcf3+ugE/7t0Oqgq8FP3a+C9fghAKOtnrPKmpeJe3XdgkWLfPGW+lXauddOHnMZejc5WAuvvW8e20Bz1bCw7ryz7TDHVjMyMCZ3Znlrri7CJm+iNazmAk4/toGNthubNJMnhjkIo5/Dg6r1rsnEnLtt3PF5Kk9ir761nWmj3R25V3ZIwlFt443Dvx25awVlPlnCmbXOao9ClOvzoEVbfrH2pTRHEEMaqhj0nDoJQzolhzO1OFPACtGYEx9P4biXtXGClta+104VjsTMqiyCT+M2vsgnd9o9c9BDHfx482kT2NGU96ezgCpMo0l4Pr4brTgRo2wduaqmPrbZJojqcqlECEMoaHRg060YCVlYPLFjh4AzZZvr4DacSuKjuiDrb3Nr9fvrpVy/RfE5HtfBuOw0Yximp2AU8lSXWpmRvdYlrdD3bGe9lB5DzRwOqzAJ7ux6+0y8BCGX9jl3etrzvQCM98vVyOsWZSz5hFYVkza4/pU44b3rTyVlPvDSbg+pL5pMBQ41UlCITOltJYiZxjReDdJQDzp/Y42M77fRsFubtZNFhxyGUdThoaHKIgESgExO6ExyLecuHnP9vgydmiFBREUhOwdW/b+ecdBJPw0JL2FJDrD4yXZrZi/HIDi+dZy/FK2xhIlYWKCAAoYw5oGsCYo8sTidDxpiUSHLvPNvG+mZ/TCsFUTWc4pXp+eMBJZ7G/BV2uukOR1IsnC3qVrkdrCqu5Tbu5E1LiekBb7yksOfcyRDKOTek+dehQk66WsLedDMW22kqW2m883wrvfurVlUgxMzsGCcOFQEtDisPfb2MU1IlZkJnL4u92r7Cm3efvOFSYnjIxiCsKlQNU14dBKGcV8Od250V++ZCNqO7n12257LO+NV/b+bURz5ON9VFvVlGiGCU9Ej7P/FQHWdJWfxgsRJPo7zKEFeW7WhuKhI+UzJ+iN54D5vouTkTCAoIRCMAoRyNDD7XNQHRNX/l+304trCX1rGlhmwGetk8LpbWtvliB73xry2KrnfB3Q4aM9XMuQfV/Uy6qyFE2Lu4zvOn/LT5HTc5m9SpN3QNHo1PmoC62ZZ0NbgACGSegDiLTJ1vUwLsS6hPSUl1klerasqRLV7Fi27iAgtNX2xTXLaLY6gnxNU7XNysFjnLcSpOc5aV2gN+xDcOg8FrTAIQyjER4QC9ExCvwNseMfKql+NpbHTT5ncl9nBsxwzJsr1jpZuOcSaPSRyUfyGvnHtTg1g+dbO+wOZ5h9iqQlyj1WRX0TtftD+1BCCUU8sTV9MwAfHm68dpqSZwTIxP2F55+0oX+TljR29FVBCtDR209R3OesKqkCFshheIsth2sfXFBy+0UwMHnXc2q4sL3Vvd+C4/CUAo5+e4522vJZ6G2DdLkKLpN1vp7WfaeEXro64Ye2+yEdhwJsgmbJz3Loo7teiUT7BjSqxr5S18dFwVAQhlVZhwUC4RkPRRIpynsPmchAjdvNJJb7MJnc/Fue1iZH7uCMZYWccQ7rnEEX1JDwEI5fRwxVV1QkCCE936cAmN4djLa//YTvs59kRrQ2fU1bBOuoVm6pgAhLKOBw9NTx2BmhEmepTjaUxkffP21S46uNGrRJhLXQ24EgioIwChrI4TjsoDAmZrIU1fZFN0znumu2k/m9HtXevJg56ji1oiAKGspdFAWzRBoKyPgRbe6aBJc6w0bpab1r/p4nCafk20DY3IfQKpDSib+7zQwzwhIBmxK/uFUlJ940d9aMljxWS24eeSJ8Of1W5ilmUVPyrXOgGJtVw1wEiPf6uCvv6TKho4xkhivYECAukiAKGcLrK4bs4RGD/TQl/4m0qyl+Nnk3ODq6EOYXZpaDDQFBAAARCAUMYcAAEQAAENEYBQ1tBgoCkgAAIgAKGMOQACIAACGiIAoayhwUBTQAAEQABCGXMABEAABDREAEJZQ4OBpoAACIAAhDLmAAiAAAhoiACEsoYGA00BARAAAQhlzAEQAAEQ0BABCGUNDQaaAgIgAAIQypgDIAACIKAhAhDKGhoMNAUEQAAEIJQxB0AABEBAQwQglDU0GGgKCIAACEAoYw6AAAiAgIYIQChraDDQFBAAARCAUMYcAAEQAAENEYBQ1tBgoCkgAAIgAKGMOQACIAACGiIAoayhwUBTQAAEQABCGXMABEAABDREAEJZQ4OBpoAACIAAhDLmAAiAAAhoiACEsoYGA00BARAAAQhlzAEQAAEQ0BABCGUNDQaaAgIgAAIQypgDIAACIKAhAhDKGhoMNAUEQAAEIJQxB0AABEBAQwQglDU0GGgKCIAACEAoYw6AAAiAgIYIQChraDDQFBAAARCAUMYcAAEQAAENEYBQ1tBgoCkgAAIgAKGMORAXgc7OrriOx8EgAALxEYBQjo9XXh8d9HXRif0+unQuQMEAhHNeTwZ0Pm0EitJ2ZVw45wgE/F20+U0XXTgZoAV322nKfBuVlBuooCDnuooOgUDWCEAoZw29PivuCHbRqT0+unwuSIe2e2nuMjuNnW4liw2SWZ8jilZrjQCEstZGRCftab/SQTtWuun0AT+NmuahJQ84aMQEs05aj2aCgHYJQChrd2x00bIrdUFqqXfR0e0emnung5Y/VkKOEmxV6GLw0EhNEsCvR5PDoq9GiUqjub6D3n+mlX78tXo6sNVDon9GAQEQiJ8AhHL8zHBGLwQuHAvQP/1ZAz33f65Q3Sk/eVydvRyNr0AABLoTgPqiOxG8TwmBre+66Mg2Ly2830EzltioX42RjCZsBqYELi6S0wQglHN6eLPbudbLHfTh8210ZJeXJs610uxb7FQ1oAgmdNkdFtSucQIQyhofIL03z+9lh5MdPqo7EqDjbEo3c6mNFt7l0Hu30H4QSBsBCOW0ocWFIwl4nZ10eLOXTrNH4LZVbnrwa6U0dAxM6CIZ4W8QEALY6MM8yBiBzo4ucreKcPbQz77RQH/8dQu1NHZQFww1MjYGqEj7BLBS1v4Y5WQLRTi/+8tWOrTVS7c+Wkxjp1motNKQk31Fp0AgHgIQyvHQwrEpJ3B6r49+y7E0Ji200NzlDho9xUxWOx7gUg4aF9QNAQhl3QxV7jZU9M3b33fTwU1euukeO01fZKPh481UZIQJXe6OOnoWjQCEcjQy+DzjBESlsfYlJx1mlcbUxTaat9xOfQcZqRAL54yPBSrMHgEI5eyxR809EOjgOM3n2Suwsa6N9m/00G0cS0OEMwoI5AsBrEHyZaR11k+fu4vOHvLTs99rpP/5wAW6cCagsx6guSCQGAEI5cS44awMEeji0BmNdQH6xyfq6ff/1EQXa5H1JEPoUU2WCEB9kSXwqDY+Aj53J635fbsST2PJI8U0YZaF+g40xncRHA0COiCAlbIOBglNvEbgwokAvfJ0C/3+6WbavtZF7S0d177EXyCQAwSwUs6BQcy3Lvg9nXTgEw+dP+6n4ZPMNJtTUk2eYyWjGSZ0+TYXcrG/EMq5OKp50qfmix20+5KbzvCG4JEF7Bn4cDFVc4hQFBDQMwGoL/Q8emg7dfJGYBOnpFr3Sjv9+KsNtO6tduUzoAEBvRKAUNbryKHdVwlIPKNOVi23NgTpt//QRD/71iU6uMNDXt4cFOsNFBDQEwGoL/Q0WmirKgJHJEToPj8t4gzbM262Uc1II5mtWH+ogoeDsk4AQjnrQ4AGpIOAj3MDrnmxnQ5zSqqpN1tpzq126jfYiKwn6YCNa6aUAIRySnHiYloiIFm26476qf50gI7t9tI0jqexYIUDUei0NEhoyw0EIJRvQIIPco1A0N9Fx7ZxSqqjAdr1sZuWczyNcTOtZLbAhC7XxjoX+gOhnAujiD6oIiBR6CRf4PljV2gaZ9i+64lSJZGrqpNxEAhkiAB2PzIEGtVog4CknhLhvPENJ/3gCxdp9WttilegmNahgIAWCEAoa2EU0IasEHC3ddKLP2qmf/7Ly7Rng1vJF5iVhqBSEIggAKEcAQN/5ieBM/t89MvvNNJrv2im/Vs95OZMKCggkC0C0Clnizzq1RQB2Qzc+p6bTnDOQNE3z+V4GoNGmJD1RFOjlB+NgVDOj3FGL1UQ6Ozoostn2WX7VScd2OShifOtdOfnSsleggdKFfhwSIoIQCinCCQukzsExPHkwvFOaqgN0rGdPrr10WJl5Zw7PURPtEwAQlnLo4O2ZZWAqDTO7PfRc0f8tHOtm+55qpTEIQUFBNJJAEI5nXRx7ZwgEORkrrtXu+kcx28eyxlPgv6c6BY6oVECEMoaHRg0S3sEGlnfvOGsU3sNQ4tyigB2MHJqONEZEAABvROAUNb7CKL9IAACOUUAQjmnhhOdAQEQ0DsBCGW9jyDaDwIgkFMEIJRzajjRGRAAAb0TgFDW+wii/SAAAjlFAEI5p4YTnQEBENA7AQhlvY8g2g8CIJBTBCCUc2o40RkQAAG9E4BQ1vsIov0gAAI5RQBCOaeGE50BARDQOwEIZb2PINoPAiCQUwQglHNqONEZEAABvROAUNb7CKL9IAACOUUAQjmnhhOdAQEQ0DsBCGW9jyDaDwIgkFMEIJRzajjRGRAAAb0TgFDW+wii/SAAAjlFAEI5p4YTnQEBENA7gZzM0VczzkRNFzs4wWUX+dydcY2RyVpIRnPB1XM6O7rI0977Ncz2Qioyhs7p6uwid1vvx1+9OP4AARAAgW4Eogplk6WQlj9RTFPmW5VT/L4uevFnzXTuUM+pfMfNs9DdnILd9KlAO7LLS68+3dKtusy8/fxfV3I7iHzeLjq620trXm6nlksdqiofNNpIK54ooT79ikiSyZ/m/j7/gys3nFs9zEiL7nfQML4BWFgoF34qx7v4JKm38WKQzh7z06a3XeRsUlf3DZXgAxAAgbwjEFUoF7Bio5IF09AxLN24eD2dZLZdW0F2J2UrLqQho8xktoaOaboU7H5Ixt6LQC2pCGlmXK2dV1exahpgshRQ9SAj9R9iJJHK7c03rno/81fltPieYjIwvcIC7m8PWEaMN9OspTY6ssMLoawGPI4BARBQCEQVyuBzI4FClvP3/3kZ3fpQyXVfdrHc7mA1h5RCWTLzf3Kst62LOrFIvo4V3oAACPROAEK5Gx8nr6yP7vHS5QsB5Zuzx0Ov8qZqsJFmLbFfPUN01pfOB6i+NkitrKLoZH2yvdhARhORvcRAXtZnx6vTvnpx/AECIJCXBCCUuw173RE//e4fm7p9Gno7dCLrjz9V4cjq+PRRH73y8xY6e9BPwUBopSxHGooKFFWPrbSQ2i5jqdwjTHwIAiDQI4GMCGXR05b3L6I+A4uootpAJtY7W2yFFBDrCFcntTV10rGdPnK19CzAikwFNHSyifrxStXOgk4sHTzOTmVl2sJC7/yJILXwxppcL1oZwBt4VVx/NV+jktsgKoYm3vzb9oGbmvnccCnl74ZOEOEb0kk31Qfp+A6f8rWjrFARuPJG1BVnWICf2hP6Lny+8l1QLDB6tsIQy46Bo000aqqZSvsYyFZcoKg4Wq900KWzQTq510dNF4IkG4bhUtbPQFMWWclRZlDq3b3GQ1fOB2nASCNNnGelY7yyP8H8hKtsQFp54zHIbZBN2QBv0Jazjn3kNBOVVxfxKr6AnMz51AF/1E3bcL14BQEQyDyBjAjlSSxQlj1WQmWVBmUjsNBQQAaWi52ii2XhEWCDjjZ+/H/3+Vbatcp9HYViPufRb5fT8PEmsrKgFIEs+tqgyFEWXH5fJx3f56O3n2mliyeuqRrCFympLKS7v1JKQ1gQ2hyFisAys2WJCGUfb15OYqH2n99ppHYWilKqBhXR7Y+XUN+BvNHHRaw3wkJZBJrs60mRdjtbbtwEDH3b8//LWbgu/3wJTZprpeJyvjmxgJb+iAAW6xYv36AaWNi+85tWOrjec/UiciO6aYWDBrHADXIXi3glbmCGYhnTl9srNz0RymIFspgtQibMsio3rNf+s0XhJu+lPjMfJ+wCfI12Fszr33HSh8+1Xa0Hf4AACGSfQEaEsqzaSioMijVHtC6XVxno4W+Uh0zJeBUXLl/635U0boZVESbhz+Q1ZBPCulsq5FVtQFkRRn4f/nvwKBMNHmkiuRF0L7KiHDPVQnNX2GnVb0PCSQSeg/XBpdxeEfqOUn7toYggDW/u9fD1DR9Z+YZw95fKaD7XJeqNyCKCXgSm2WJQOH39H/vQz//nZTq8yXv1MLkhmNmG2mwhuusLpcpNRQSznFvBwl6KWMwUc3urBoSG9Ut/20e5+XWvz8xWjo6SQlr2SAk18Op8z5rrb4RXK8UfIAACGSegWiiLABg50UwBXsCVVhXyJpaoHrqUR+gLvEIV1URPpmHSIzEru8JqAJ+ni2pZDysrQlmtiSAezqZjYnonK7jS8kKastBKZz8VymX8uD1qsuWqQBb1RFNDB6sdgvzYz7bBIoR4BVh/LkBtjT2vWhVrCG6DrGxlNSrWEAZeBMtqWQSa/BvJqpFVaUY/mFf6i+5xXK3FwwxOH/ZT/dmAsoIfOcms8BABKjbin/1WBf39jouKA8zVk+QPbm/YUUWeNGQzUa7VU5GVuLOtg47sZPXGfr/ylDLjZhsNGsE3KWZXwuym8lPM3rXu69QlPV0Ln4EACGSGgGqhLCu1h75WnlCrTu320U/+9FKP546ZY6Gn/lclVfSVx3C2dWY1gwgmEaJ9h4SEdfjEPRvc9BI7sLSyYA4XEVAGbpufVRE9FVFR1J8LUi07cojNsNwchvPN5fbPloRWw3xSBQv/dJfpS0JOOFKP3Fxe/tdm2vSGi28SvOTmMmiskR7/HxU0ahIvhbmUsb556CSTopZQPoj4n6zSRf1w8qCPtnzgon0fX1N1RBxGLvZE/Jf/cZmEf7iIQ8sTf1Op9L2QF9hyY3TwU0FYfRM+Dq8gAALZIZB+aRSjX3VHA+yYEhJMcqgIWdmw8rSHNsoiN7xkVSurP1nlySpRilg9RFo+hD699v9zJwP00tPNVMsCTCwmpPi5vhmLbVeFspixpbuUsfALlyu80j/FevCwQJbP644E6AyvnEdMCD0ZiCpCVB49FdG/v/1cK+1g/Xtv3oJnj/NGZIRAlmvJuZG8ZEPTzhuYEMo9kcZnIJB5AqqFstjg1rGAk8flnoqoE/rVGK8+Wvd0jAiZSt6YKuRaRRjIalgeoc0saHsqDWeut0IQVcYj3yqncyxszrBlwfFdvphxKSQOhbO546pA7qmeTHwmm5ThIhYRPTmVyApaBLWoXMRT0MEbfD2VFt6U3L7STa7Wa08MPR2Hz0AABPRHQLVQDvLe2/svtFHtoWuPwpHdHTHZTPd9uYzNzW68pJkF0vz77DSdV6ciaEToiIuyrIJlY62ULSx6Kn5vJ735bAs9/NWQ2kSOm7bARhNmWqmNH9+bG4KKXnbNK+3UyBtWKCAAAiCgdwI3StAoPepkCSpCUFavPRWxgZWVb09lxjIr3fn5UsWyQFQQ8ZTVL7QrNrV3fK6ERk+x8ApbNsIKlIBBEuNi2LiQve+r7MTRzPa9KCAAAiCgZwKqhXKinRSnkck3Wa9bDcvj98VaNr/4tAwbe81ZI/xZ+FVcmY9vZ1th/ichMsfPZRO22+2KrW/YzleC/wwcUZR+oRxxz5HNyGjmcuG2R75GnBqyUol2c4r2eeTF8DcIgEDOEki7ULY6CqiYPdHCRTaZvvfYxeu89779i2oaN52tDlggiemdePD1VMT7b/dqt/LvC39XSYvuCpmYiX5aVCTpLmJ6FtYFi1CuZPtg2SRzRXEikWNERyxqGolWFy6iR5cVv/QyLKzF00/M+0SdI6WLT+rNQ1E5KIH/iRWNbJSigAAIaJNA2oWyeKCJfXC4yN9G9vwQ4WtjgSZebnZ2ZAjbOEvoTwfbK4etAcZynGYn2zm382adly0yZOUs+mh5DRfxDuzJOST8fapeGy90XBWUItjGTrPQnV8qpaNsByw22CJ8pW1iQaLozrmPe9hcTSwkzp++9mQgjimzl9nJyGoYsfUW07QaNgUUr8Vw6eA9vIunk1PH2HnztYav6eYbgtwM5SYxbhargNgJJVzkcz/Hf0YBARDQBoG0C2WJZ9EcEZRHXJ0/w27TLY0dSiwH0QsrsYt74CFuw+JE4WIHiBYWbGImF/B3KsJlyk22q2e4OQ6GxMJIdzl31E9nT/hpUmXI5lieAG55oJhmL7VftUoRwSdCuZhvOG62Ez59wKcI5SOsfml/uEPxuJN2LrmvmMazgBQnHBHklWynLV6P4XKSz7uc5OalxAp5/C8ryMlWGrLqllX4UNbBh+N6yB7AZdbDI2hSmDpeQSD7BNIulD1sknaWhZlrUWdoRcx9nnnztfCXvSGoHs5BhNhleMDQUByKaMfW8vXr+F+6iwivd55t5bgYHNiIA+FLESEsjh78l/I+8n8Ss8LAAlrKObZBXsnWKxJXQ1yhRV0xaPi1lXHkeWfY6/Glp5uiOsREHtvb36JzFy/MaEWcS3atc1/31BHtWHwOAiCQGQLXnmPTVJ84eWx6y0lr32jnNEnXr2bbWCWx5UMXbXjPqTz6d29CKwvBvRvZQSJCHxt5jKz09m320Mrft13n5Rd5TKr/Ps1R3H70lUv0MfdHnECiFUkJdY7dz8PxlAP8fv3rTnqRHVlO7Pf1aKnSzE8P69910r//dSNdSlJ1Ea1d4c/bWCX0ws+a6NDGa/E1wt/hFQRAIHsECp6adSaqQtHGul4Tb6CJGZvoSzv4Ebid1Qg9FUk4KvGDr25e8fEt3YRWCa8oh3BMYinyaH9evPk+VTtIeMlwQ2RDLzJZqeiLq3m13Kfm+tXo2YMBar18o2As42uF1qehjTQXtzly00wC+1g/dcxQ+sb3inBbrayHFSsPKfKd6K7D+m3lw4j/iWleP44jIbFAIovH2cV981/Xh8jv5e9iVlUM5hChok+WInrzCxxQPyzEQ5/G9//Svgb6LKsrJL6FlHbegHz2h41KuE6JeiebixJE6Tw7AXWPxhdfTTgaBEAgXQR6FcrhSiU2Qm/uvOHj5FUEuZc3ryJdiCO/j/a3hOiMJvyindPb56LXLeLH97DQj3asgy0exOOvp5LqNvVURyo/60kof2vZuVRWgWuBAAikmYAqnbJagSxtFbfmREoqBbLUL1YF8i9WiSaQ5bxUtylWW/A9CIAACFz/3A0eIAACIAACWSUAoZxV/KgcBEAABK4nAKF8PQ+8AwEQAIGsElClU85qC1G5agLimSeJAPZv8dApzjRyKcKLUPVFcCAIgEBWCUAoZxV/aisXR53Nb7lSe1FcDQRAIKMEoL7IKG5UBgIgAAK9E4BQ7p0PvgUBEACBjBKAUM4oblQGAiAAAr0TgE65dz74NgcJSLzuIeziPnamhaoHF3FG7yIy8PJEAkhJ/kRJ5CuRB5UoeueDdJGz7dRxdMAGjkci2dFRQCCdBCCU00kX19YUgTJOWXbfV0tp6nzb1YiFSoyUcKCU7q1lh9BIn1BJcrCdkyy8+i/NvcY16X4ZvAeBeAhAKMdDC8fqjoAkI7BzfJMFnLj33qfKrmZ2UdURFtaR8lpigUvIVRQQSCeBqEJZMoP0HcaB16Nkmk5noxK9dtPFIF2pC5KEC0UBASFQNcRI9/0pr445C3o41VYyZCT8bBfmVzIIcW4MAlGFskRYW3S/g2YuUReQPkY9Gfn6w5fbaO2L7dQZkSoqIxWjEk0SKK4opJsfdJBkqZHchKkoF88EVAW6SkVduEZ+EogqlAWHleMKlytZNfQBR8J1ooCAEBC1xbDJZpq73E4S9zpVpZGfxjpURB9MVX24Tv4RgElc/o15XvRYEi4s5jyIknorVUUy5UhWckn4gAIC6SIAoZwusrhuVgn0ZV3y5LmhBLepakg7J6BF5u9U0cR1ohHoVX0R7SR8DgJaJzCU7ZAL4lhyyOrXz5t4Qc4uJllzCgtZ5cH/GXihLZveohprvMAZ1RNM4qB1XmifdghAKGtnLNCSFBIYz44haovYH0sy28M7vdTcwCqKtg7WQ7P5G28OOsokW3kR9asx0okDPv4OphdqueK4xAhAKCfGDWdpnMDAYaEEvWqaueb1dlr5X23k+TSJb0/niBegFEmkiwIC6SQAoZxOurh21giUqbSvb+VM52v/0N6rQJZOQBhnbSjzruI4tG55xwYd1jEBtZ535zimhceJ1a+Ohzrnmh51peznwCuHt3vZ/CfxCWsvMdD0hTbV0LavcXEwmMR1dif2+KgzmHh7VTcUB2qagMS4UFv8HIAINm5qaeG4TBCIOntFFm9916X8S7Qh/UcaaexUC9mK1S3IX/ppC7Ve5u1vFBBIgkBBHL4iit1x4uuAJFqJU0GgZwLqpGXP5+JTEAABEACBFBOAUE4xUFwOBEAABJIhAKGcDD2cCwIgAAIpJhBVp5zierJ+OQfH1K0eHuqu1VaoeHtJdgkplzijhJNNo7RaLBwYyshBdVwceyHdYUmLKwzUniALCfzTZ7CRrMXRlbqN5zqUjB5a5p3OeSAOKZU1RWQvC62HqgYU0eUL1/ZR2i53UhO/l6wnWi3Sh8KiAvK5M6eMl32C8v6cJab/9bFMJBtMovM1Gl+TtZCqOCONxRGax508PPWnAxnz5sxJoSwRwgaONtHM22w0YoKZ+g4qIhOHIhV3WaXwiwxyOC5uB7vVSgqgs8f8dGSXlw5t9dJlTgEkn8dbCiUO9dAiquQfm0TYc7V3UmW/Imo4HyCxnfV5uxTBWnvIT5drA71u/MsPd84KO910h51OHfTT6z9vIS97n4VLv+FGqhxYRNXcvwZOW9SHJ614nBXyvJX+SgCdqgFG+uh3beFTor5OXGilhfc4aPQUM33vsxeprTH6TcrMNzXZxB0y1kQDuQ39hxqVvtpLCrlu/sF+irmnysJMA36ii9z/U+wlt/sTD5077Ffcm3s6p6fPipnl4PEm6sv9b2thDzwWFAYWFE7uf19mr7ZUs4AcP9+q1C1poTyfChoL97GFN52rBhqpqSFIEuC+ltt46VSAAnE4kNjL2AJpqVVhNZo3vYt5TMWFW+aoFBmrzgjUctMVRnVcz4n9Xjq4xUsXjrNA4HmUaJnAYys3TOmDzHmJCV3K/JQ5w3NT5szlugCd2c+DEqPcxbGppzCvg/wbee+Z1quxQOS3VcXzfsg4k9IfmQuN9UFlfFqvdJCZPSTFJvz0Ph+5OahTb0UcdaqHhebXMB7j4fwbLq8yKHNL0nZFliDfvOrPBmn9O07atcp93e8j8rhof0vgqmlLbCT19Oc6+/OiQmRD5DwWKeBj+VB7zEdrXnXSsW3etIZvVT97o/VKI58LRLOtgCYssNDdT5TRQAYcT3GUEvXhCTp9UciE7+A2D/2BhWDjuQD5eUDUWgYazURzWYje9QW+YC9FJtHvf9Sk5IQLHyaTQexrjdYCuuvJUhbGjqtpiyRP3HVpMPik8moDffYvyqmaXYCjFfmRnzvup6P8I4osIhSs/MMZzuEtlz5UTGOnW67GHK5hYXtwgyfycBowykQjpppo9lI7DRtnJguzTrbID03coe96olQR0Ds/dtMHv20jv7sr5kqxgAXbN/9f36vCLdG2jJ5i4RuROpfsdW876Y//1kKBGE8S8kMfOc1C8++00/gZFrKyMIy3jJ/BbPjce54gauebzob3XLSOPQ9b6jvidmS59ZFimjSn9+BMmz5w0qv1LdR2+dodQuajCEgxMZx5q41u4+uU8JOUFFnd2/gG4+f2KIWPHT7JTE9+pzL0vof/nz/tp//4buN1QlnmocRul3rG32ThZARWbuu1dF09XOaGj4r5xjeK5/F8/t29zKm65AYfXnCFD1b6wvXIzan/CBMtuNtOkzhgVemn/QkfF+3V5uDfW5VNSSW2+QMXvfyzJnI2935ziXatWJ/rXihL0BlRTYydY6EVnyuhQQxcBiDZMmG2lb7/vJV2r3fTShYUkCqlAgAAFdJJREFUdUf9V1cFyV5bzi/hAOyRAXNERTFglJHm8cp44Z0OJQBOZD3ymGtIcLQiHSlkNVnKwlxWNMs/W0IjJ/JdpFuRFUN3ofzXv6i+eoPodnhK3vbnqG5yI5u+2EbvPt9KBzZ6WF2TnkmfaINbWGD5Ip5Uul9HghYN5kBIt/M8DN/cux+TyHsROnfwWN3MTzIfvtJG21a6eLEQUgMlcr2ezpF5Iav2cDHzfOzHmYdmLLXRAp6PJfwbiyxy/NUnz8gvevlbXN8r+hmo/mRAWXyU8TyUJ1oRxGP5JlbBwj+Z3+4YvsaffLeSnvvhFao9EFr1h24qBurLK+BJ8yw0b7mDHHzTTKbM4xjd9pICev6HTdRy6dpNLJlrRp6b4M888hLZ+1sGsIphL3u8mDOk2MjBziqpLHJ9SSMkAvH9F9pozxq3smpORR19+htDj7GGLhrAE3PaYivNvsWuqCJk1d+9VPAEFj1evEXOGMBC9gCrCEr7GmjCPCvN5B/aZH6NVsr63Dhpm1kgySNpWgs3dgCrQh77Zjmt4zZ/xFlk2ntRo6S1LT1cPBjovE7VEHlIMauqZDX5wJ+WKckhIr9L1d+y4r73T8poIi8YPvh9G+1b54l71RytLRX81CL+BLISHzKR5+PNNprBN0i5WfZUSsoLee8g/vkwlZ9ERf0zilU5E2ZZaNhYc0rzHtaMNNFDXy+n5/7xCpVyn4bxTXIKJ8odySqQVCY7mDzPRnd9qYNe/mkzBVglmcqia6FcxuqG+/4br67YazBdWUfk8UoG+u4/KVUeiUQwSxr6ZIvoPeUxdx4/Rs1m3bdMzt76IKulsB4yrrpZ0MkPq4Z1ZqKmmMasYq0URLfavYhOfNCInn+g3Y9N9r2DA9PffG8xuVmP+jHHpfCxOiPbRXSXErCopw24Ev7x38YLg6UPFCu603S3dfh4Mz30tXIys5pr+0p3SgSzPMaX8o1F1FmL7nIoetze+iH6aRPXH2+ZxoscUTUMGq4+YFS8dYxjtc9j3y6nir5FNIDnvqyW01EkK/puvjF2f6pMtq4bf33JXjGD59/xRAnN4DuvPEqlu8gGwJ1fLKV6ztEmOqtki6gUvvKDPtSPd3lFCMUqShhJfoRs5dCS8RRZ7cvGzFBWV0gfehP84euW9ZAC7DxvPE1fFD4i/a+yKl/2aAm7+vvo7EFf+iuMUYNs9Hh7uDnIOM6/x67cRGQzKxNFxlQ2OO/mVbO0a+/HnqRTVJWzAHv4G+XKhposAGIVSRVnZv1svEXmVk/zK97rxDpeBGa6i2zazuAn9FQL5czMojTQWfxwsaJ7zYRADjd/ID9aL3mYNf4pKiN5Y0SNQA5XVzM6sZWq6ANrWNeuRiBLXT1FWJMff6aLWAjc/WRJpqvtsT4fx2SJtHwJHzSO9ZS3PVKSNpVFuJ6eXkWttuyxEurD1jfJFrnpD+bNXDUCWeoSoZxKdUCy7c/G+SJ7howxUb8UP0HqUiiX8V1dNqlkImWyyMbcoruKFT12JusN15Wux7Dw9cOvIrzF5Cyy1J1M/ukg8npq/xZ1S59Bid2M1Nah5rggJ0vtbgpXxptWi3jzrfsmmJrrpeIYWTHLRu3s5ay+y/BvQRHKCagvUtFvLV3Dznr1PnxzTGVJ7dVS2bJerjWLJ2EFb1rFU8ReWEyLJMdaVyf/45PFXlTu9vKjEh2Z2nLfV0vpV3/TqPbwlB0Xr5lfohXLI3k/drRpZ/vScKllO+lwUWxpWUj5ecNGePp9oQ2wSKEV1r2Gn2RE0MtGVTGrJeIVIIvutys22uH6w6/tbIcdacES/lx072qfQKTNXrZNjmXy2MIsItUXIhAH8App7IzoG6bh9kS+SqopuY6brTiEkTyBiG5YijByMB/JeiLXV1uW8Up9MwcPazx3zQlF7bnJHFdWWaQsjCLHPZnr6fFcsZrqMyA+WRSrn7oTyuJQMZWN4cM/9lgdlM2iU4d9tG+Th47t9lHzxZCdp/wIRfiIWc74OWaaxfa38vim5hFfbD7FkiFe/W6stvb2vaQsCmQotX3TJf5xd10vFURAn2GzQCff2ERAiUNAK1tGNLFJ0BU+Psibn22N10zY3JxkVIrtU325bGoOYpO/4byymzjbomye9tbfyO/Gs7nj6z+P/IR4x7uTXvn35htst+UoyWD96J+VX39ClHeneW5set/Fufl6V8+42cGiofaa0JN5soQ39ixxrBbFguU4O4RI6qm6E+wQwhuHTec7qGJg6EctOkpxlBjGG3liIhYW1lGafvVjudnNY5vot/+j9epn6f7DKePLU0SxCIrDmSaRdsnGuoyOOESlq0gIV6lHmKuRAeF2iF49bLsd/izZV90JZbFrlF1VNSsJWR2vf7ud1r7iVFxXu6+G/Owf4WIhc4E9+Y7v8dPtj5copnWxoMqqetR0M+3gne90F+mDCI79WzyKp2E66xMVxb7NHiWOdtjOM7K+F37SxKFVO5QVtFoLFOErRV7Fg3H3R246wEL5wa+VkVgRqCmD2fpFViSROl3xcNvytqvH08vZKketUL7Eq8tt7JgRb5ZqcZwYpdLpRBp5gTeI33ymhU7wwqD7zTzMSI47tNFL5fw4PGm+he59qky1c4M4GmVCKIuXqHi9Sj7Dw+xtKDfHVBb5jcoTrWwsi7NJG9/8Pa6QUJYNQrG0EhPPZIs8HcmYyILiCi/UxPtQYsjb+YY+ZqqZnZpCXpCx6hEVaqpNRXUnlGW1JXocNeUku/CKQL7CLsi9FZkItXzspvecLChY6KsIkj6Ybw7pFMqiIhBhLJ5/x/gH0MSZlNOVkkgmpqwW921w0/njocnZE6/Te1NjBXFsB7vo/raVvvy9KpU7+Ox2y+7ctbzC1Eqp4Q0eUTWoKbIifvYHjarcmOV6zewt9wnPW5kDn/mzClXek1XsYi+OK2cj1Exq2hbPMbIwWPemk2rZGkaeisIqqniuEe1YEZL7t3p4DnoUQdnK1xdXfx+zEw5S5Mm2nm/s936pjKS/iRT5Te3mOk5LH1jgyxOQu5XVSJ+614vq68AmdrX+RgF7FloUd+tE6knmnMR6lkyNSZ5bwTa0anZ9nexfLyqLpou9C+Rwc8Qt8wLfnc9yeiA1Qll2XdNVLp4N0Ep2VjnAk0eCsKdLGEsMhA3vOunj10JPEvG4kyfTd2Fdx/Eczp3w8UZVbBdneWi12NP36JpIX8TEUG3Zuc6tWiBHXnMfO/zMudVL41TqrUew/W86hPKxfV5a+bt2jlvh5fnIsVsSiAkT2a/Ivxv597n1IxftXO2mK3wz8rRHv748nZ3ghYGscOMRyqK3P8BhE9azm/y5I5z+iwVxtCcjuQHUsxw4tserxIGxqph3sgcgQYxkpZ2KoiuhLI+w5azLVaPzaW0K0nEewO4+8L1Bk7u/6EjVFInbIGKid02kmiuFjpHVeidvQG7gDZuXf9qUMs/BnlogTJpYDfHsPzTeEBOjp+PT8Zmig76ifhJrSySTekcaHtdNrB5JpDibOmkjn6tWKIvXZ6qKzEfRG0vMjY/Ye7C7yiXZemRl/OZ/tdLGPzqV1ara67Xzb7SZA0SpKbKSP84BkN74JauNdql/ypLfhwRPkg1Mqz12TaJKVaNOjX2l0BG6EspqOyXHyQ53s8pVcvi6cqeTcJ4yIWNBFr9/O1ttOFnHllThury8Yj3NDikf8Or4COvpxPwqHUUmaQs/Em7jXIiv/1NLym4oibRVVipNalN/8aSXoEvCRitFrYtxOz/pNMvGaQJFVqRiYSKrNzXenGqe8NQ0Q6LGHeMFzWqOs5Eu5vL0sOo3saMXqmlvtGOaea6/8m/NrPa6ZjkU7djun8ueRUdiw9b9UnG/15VQFp1Sum2TxUlAhGKsesJR6ZxsAJBMOX/GT9t480tMmiSObrqKbJ7II9xaDj0oIRrTI/bT1XrtXVcsPNQUWW0mo3sNBiRsZKcq5xS1ZoDR2i3zXtR3srLfyv+SCRcarQ58HpuAroSyhYOnpyJkZGwssY+QiG3iYBFrEzHWlVa/2q5s6sQ6Ltnvz3L4ztc4FGk6olol2zY9ni/xltUUyc4e3qhSc3wyx8RjntdTPaJ7fe3fW7Km0uqpTfn4ma6EcjwDJA4hN3Gwn3jdg0ewHa1aG+h42hPtWDHHyUSRTRIfmxahpIZAInEfUlNz9KuYebMp2dIYw1Ip2evj/NgEclYoV/Kmxz1PlsX01OqOSAzU1ejvup+H9yAAAiCQCgI5K5RF52v7NMdWKkDhGr0TEB28o1u8jEEcQKnuWICTEIjbcIGSS20g25mfZ3M4SUwgTkAoIAAC1xPAr+J6HngXg4Bkp5C8cxVsvD+Zvc5GcU6/waMk2l3yj869VY2nl97o4LtcIgChnEujmea+SCAhyYEoLr2SW08ihWWqJBJQPVNtQz0gkEoCEMqppJnj11r8iIOWf6YkK2qHyIzPOY4Z3ctzAhDKeT4B1HZ/4YMOupc3TuMJcar22mqOw0pZDSUckwsEMvf8mQu08rQPokMWS5ZsCeQ8xY5u5ykBCOU8Hfh4un37F4s5ZiymSjzMcCwIJEogZ9UXEvdV/OslKHs6isQ5buAwgrlexGtxIgf1l1gfKCAAAuknkLNCWWI9rHvdSXUcqg8lcQJ9Odu2WpdicSdu4+haly9wVg3OlCKBnXorZX2KlISuYmaHAgIgECKQs0IZA5waApVsj6wmfrXUdqkuwJHF2mkvxwFu4UwOsYTyzNtt9Cd/00d12qPU9Cg1V/FxlDs1RZxqkrGxlhuWmlC10hYJXISifwK6EspeZyjppP6x66cHdnYKUSMUJPbsfk4lteUd13Vpm/TT0/haKvGA1RSzkgQ1MdWPCHMbZ9mJFbEw3A4vBxRC0T8BXe3eBHh1ks+Zc7Mx3cTiQiLixSoSh/os5zqMzKMX6xw9f68kDlXRAckrV8oJERIpBl5l9+U40mpLi8rg72qvh+OyQ0BXQjkeRCJMqoeqkCbxXDQPj5WkkGpWyhKQPV3B+bWIXfIaqimyyq3hfI6JFFEbjeC8e2qL7KOg6J+AroSyrMIkTbuaH78I5QFDjZz4UP+DlPUeqHgqliwN3jSGBo2VCSbTjC7XqReAtz1aTFaVSVYj+zFskpmmzrdFftTr3we2aiczS68NxZe9EtCVUJaeNHMKIT/HBo5VJLasmHIN4fjIyWy0hOsx2wqoT00RlST4KBq+jt5enZwaKMhppGIVyQpTzNHg1BaJWW3lG6fasTEaE9PLqm1PvMdtXelSnVGkH6sgnvr7Suo3wkgGFf2QJ5MhE030ub+sUN0sWajUHcl9E03VQHR8oO6e7yUUpOQQU+NdNoQfG+/4fAl98oaTTnECRUknrraIUC+pKqQ+g4pI9ILVg40k1zvBae7f/VWr2svo/ji1ucpkPCTD955iT69phMycsWMAh+8cxP/mLrMraePVQJKksloq7ZyeXrIq14xUp16QFa+DV8tbV7npFKe3v8IrbclSLk9/BXwvk/lmLyskMUGsGWWipQ8WUx+2fFFbJLNM0vki1VaG49JKQP2op7UZ6i9+nnOIyWpZJmysR1pZcUxfZFPUGLW8CXWOz21p6CBZ/Xl4Y0r0fRL5TIpsZkm2Egf/MMrYYcLCQqa0wqDUo7z/NP2PrJjzSSjLhpYIj1hFWE5j1pKYdfuH7qv5BuWxXQRxn0EGqhpYRKMmWxSh05f/VnNjDderRq8dPjYTr5I7bxOvlh/9hjqhLG0aOclCg1iIX2Rh3sgmg0E2oZd0UTKPxUpD9PfCReZ2vP2VtGIouUFAd0JZ0q7v3eCh4ePNqiduP17lyr8pN1mV9FBiwSGP5PLoXFgYEsqyWpGsI/IYbjZzUPYoT+JDRptzY+RV9kLSVfk42zbftmKeUVldRLc/XkqzbrFzNvHQU4kIF7nhSZhP+ScJR6OxjVmBhg6Qjc3D27yKbXb1IPUWEhZeEQ8bZ1b+pao7daf9dGgz9Mmp4pnt6+hOKAuwbR+46eb7i6lqQHzNF880i/p9kx7HRnKzlbHwaVG5+97jRXT0Ye0BPzVw3raqAcaYTybSLXlEd5SoXz3qCMUNTW3m1e6hHV6KRyjfcJEUfLDyt23kalGvmktBlbhEGglEWQ+mscYUXFp+DKteblO1AZWC6m64xML77Dd8lqsfdPAThTiFyMoQ5XoCIgg3vOWkk6wjjuW9eP2ZqXknbu3b17joKN8YMD6pYaqFq+hSKAu4NS+204Z3naosMVINui9bYeRT2cxeemrtcvOJi/RVniQ++H0bXToXyKhgFiF88qBXqbu5Xr15Xr6Njx77q1uhLLDffbZNWSlk2ud/9BSLHsc64Ta7Wzvptf9oSfkNsIMFi5+9NGXFF6toOUrdLrao+OOvWug863YzUYTbcbYCeuuZVjqzLzN1ZqJfqCNEQNdLPgl68xabpzVeDNKCOx0kG02ZKFKPWGd42YIjX8pO1uMPGtGmpINSG6CoNzayEbhno4ecLPBnLbFRabdM2N3PNajfS+t+akbeCx8X92X54yU0mi1MzNb02FULt43vO2nTuy5llZ6RzqGSjBLIjBRLU5dEj3elLkgfvdBOx/f4aOHdDprJP3BxTEhHOX8qQPu2eOgcm9epMRNLRxuyec1VL7Qpq+Vl7KFWzNlIEilujkN9ZLeHNr3nptrDPmWshowxxhTKidSV6XOObPHSlQtBGjvLomxEi117qoqPgw0d3ulR7JwP8xx0NufPgiBVDPVyHV0L5TBkcXA4yuZJtQdFv9dON62w0RQ21o/XOiN8vfCrxAY+xYLjzGE/Hd3tpfqTQSU8otiX5uPGiodXgh+xYJab0p1PlNLwcSbVN8B61rmKXe+2912K84+PnzJEbSHmcedOBGjYWPUmjuHx0eLr5bNBar7oot1r3TSGhfOsW2w0aa5VsUNOpL1iJ771IxffxFx0uZbnH7uyi/oCJXcJFDw160xOjrA4hfQbbqShHNClZqSRBg5jAcKPwCXlHB+YbZGt9gKS7CHiBCArbnFIaWIzt6ZLIU+t0/v91MiCBCU6geHTzDRtsVVxiqhg93NxfvCw0BCWYgdez0JEHHaO7fLS+aP5zXLSzVbF+6+i2kAVrP6q6FukOC+VsGt6F9+c2vmGJ3sjTRzpLTQPO+k0LwiO8uobJb8I5KxQzq9hRG9BAARyhYCurS9yZRDQDxAAARAIE4BQDpPAKwiAAAhogACEsgYGAU0AARAAgTABCOUwCbyCAAiAgAYIQChrYBDQBBAAARAIE4BQDpPAKwiAAAhogACEsgYGAU0AARAAgTABCOUwCbyCAAiAgAYIQChrYBDQBBAAARAIE4BQDpPAKwiAAAhogACEsgYGAU0AARAAgTABCOUwCbyCAAiAgAYIQChrYBDQBBAAARAIE4BQDpPAKwiAAAhogACEsgYGAU0AARAAgTABCOUwCbyCAAiAgAYI/H9WYLBHqXgNxAAAAABJRU5ErkJggg==;" vertex="1" parent="SgCDyUgoM3Ze6B39H2S1-1">
          <mxGeometry x="-298" y="277" width="96.22" height="104.58" as="geometry" />
        </mxCell>
        <mxCell id="7GOPaJcTT7KWg9bpgoKD-17" style="rounded=0;orthogonalLoop=1;jettySize=auto;html=1;entryX=0;entryY=0.5;entryDx=0;entryDy=0;dashed=1;endArrow=none;endFill=0;" edge="1" parent="SgCDyUgoM3Ze6B39H2S1-1" source="7GOPaJcTT7KWg9bpgoKD-16" target="7GOPaJcTT7KWg9bpgoKD-14">
          <mxGeometry relative="1" as="geometry" />
        </mxCell>
        <mxCell id="7GOPaJcTT7KWg9bpgoKD-16" value="&lt;div style=&quot;&quot;&gt;&lt;div style=&quot;&quot;&gt;{&lt;/div&gt;&lt;div style=&quot;&quot;&gt;&amp;nbsp; &amp;nbsp; &quot;nome&quot;: &quot;anonymous-user&quot;,&lt;/div&gt;&lt;div style=&quot;&quot;&gt;&amp;nbsp; &amp;nbsp; &quot;email&quot;: &quot;anonymous-user@fnf.com&quot;,&lt;/div&gt;&lt;div style=&quot;&quot;&gt;&amp;nbsp; &amp;nbsp; &quot;password&quot;: &quot;{{password}}&quot;&lt;/div&gt;&lt;div style=&quot;&quot;&gt;}&lt;/div&gt;&lt;/div&gt;" style="shape=note;whiteSpace=wrap;html=1;backgroundOutline=1;darkOpacity=0.05;size=15;dashed=1;align=left;fontSize=10;" vertex="1" parent="SgCDyUgoM3Ze6B39H2S1-1">
          <mxGeometry x="-534" y="288.79" width="190" height="82" as="geometry" />
        </mxCell>
        <mxCell id="7GOPaJcTT7KWg9bpgoKD-19" value="4" style="ellipse;whiteSpace=wrap;html=1;aspect=fixed;strokeWidth=2;fontFamily=Tahoma;spacingBottom=4;spacingRight=2;strokeColor=#d3d3d3;" vertex="1" parent="SgCDyUgoM3Ze6B39H2S1-1">
          <mxGeometry x="-578" y="652.79" width="20" height="20" as="geometry" />
        </mxCell>
        <mxCell id="7GOPaJcTT7KWg9bpgoKD-20" value="5" style="ellipse;whiteSpace=wrap;html=1;aspect=fixed;strokeWidth=2;fontFamily=Tahoma;spacingBottom=4;spacingRight=2;strokeColor=#d3d3d3;" vertex="1" parent="SgCDyUgoM3Ze6B39H2S1-1">
          <mxGeometry x="-605" y="618.79" width="20" height="20" as="geometry" />
        </mxCell>
        <mxCell id="7GOPaJcTT7KWg9bpgoKD-22" value="7" style="ellipse;whiteSpace=wrap;html=1;aspect=fixed;strokeWidth=2;fontFamily=Tahoma;spacingBottom=4;spacingRight=2;strokeColor=#d3d3d3;" vertex="1" parent="SgCDyUgoM3Ze6B39H2S1-1">
          <mxGeometry x="-1325" y="496.79" width="20" height="20" as="geometry" />
        </mxCell>
        <mxCell id="7GOPaJcTT7KWg9bpgoKD-24" style="rounded=0;orthogonalLoop=1;jettySize=auto;html=1;entryX=0.5;entryY=1;entryDx=0;entryDy=0;dashed=1;endArrow=none;endFill=0;" edge="1" parent="SgCDyUgoM3Ze6B39H2S1-1" source="7GOPaJcTT7KWg9bpgoKD-23" target="7GOPaJcTT7KWg9bpgoKD-22">
          <mxGeometry relative="1" as="geometry" />
        </mxCell>
        <mxCell id="7GOPaJcTT7KWg9bpgoKD-23" value="&lt;div style=&quot;font-size: 10px;&quot;&gt;&lt;div&gt;{&lt;/div&gt;&lt;div&gt;&amp;nbsp; ...&lt;/div&gt;&lt;div&gt;&amp;nbsp; &quot;token_use&quot;: &quot;id&quot;,&lt;/div&gt;&lt;div&gt;&amp;nbsp; &quot;anonimo&quot;: &quot;true&quot;,&lt;/div&gt;&lt;div&gt;&amp;nbsp; &quot;email&quot;: &quot;anonymous-user@fnf.com&quot;&lt;/div&gt;&lt;div&gt;}&lt;/div&gt;&lt;/div&gt;" style="shape=note;whiteSpace=wrap;html=1;backgroundOutline=1;darkOpacity=0.05;size=15;dashed=1;align=left;fontSize=10;" vertex="1" parent="SgCDyUgoM3Ze6B39H2S1-1">
          <mxGeometry x="-1386" y="581.79" width="173" height="80" as="geometry" />
        </mxCell>
        <mxCell id="X7Q_67lXFENy5vsRlU7A-0" value="6" style="ellipse;whiteSpace=wrap;html=1;aspect=fixed;strokeWidth=2;fontFamily=Tahoma;spacingBottom=4;spacingRight=2;strokeColor=#d3d3d3;" vertex="1" parent="SgCDyUgoM3Ze6B39H2S1-1">
          <mxGeometry x="-702" y="499.79" width="20" height="20" as="geometry" />
        </mxCell>
      </root>
    </mxGraphModel>
  </diagram>
  <diagram name="Autenticação Identificada" id="u34Ox6UM5iaxLJQVYXHE">
    <mxGraphModel dx="3213" dy="837" grid="0" gridSize="10" guides="1" tooltips="1" connect="1" arrows="1" fold="1" page="1" pageScale="1" pageWidth="1654" pageHeight="1169" math="0" shadow="0">
      <root>
        <mxCell id="KUTmv73prJjMfpJWbAJc-0" />
        <mxCell id="KUTmv73prJjMfpJWbAJc-1" parent="KUTmv73prJjMfpJWbAJc-0" />
        <mxCell id="N7byMyHGwKg1MNSmDIrG-2" value="" style="rounded=0;whiteSpace=wrap;html=1;strokeColor=#777C8F;" vertex="1" parent="KUTmv73prJjMfpJWbAJc-1">
          <mxGeometry x="-1463" y="171" width="1273" height="827" as="geometry" />
        </mxCell>
        <mxCell id="9vqPiwgQLYRiUiiKCfZ5-0" value="" style="rounded=1;arcSize=10;dashed=0;fillColor=none;gradientColor=none;strokeWidth=2;strokeColor=#777C8F;" vertex="1" parent="KUTmv73prJjMfpJWbAJc-1">
          <mxGeometry x="-1087" y="298" width="828" height="408" as="geometry" />
        </mxCell>
        <mxCell id="9vqPiwgQLYRiUiiKCfZ5-1" style="edgeStyle=orthogonalEdgeStyle;rounded=0;orthogonalLoop=1;jettySize=auto;html=1;" edge="1" parent="KUTmv73prJjMfpJWbAJc-1" source="9vqPiwgQLYRiUiiKCfZ5-5" target="9vqPiwgQLYRiUiiKCfZ5-21">
          <mxGeometry relative="1" as="geometry" />
        </mxCell>
        <mxCell id="9vqPiwgQLYRiUiiKCfZ5-2" value="lambda integration" style="edgeLabel;html=1;align=center;verticalAlign=middle;resizable=0;points=[];" vertex="1" connectable="0" parent="9vqPiwgQLYRiUiiKCfZ5-1">
          <mxGeometry x="-0.0945" y="4" relative="1" as="geometry">
            <mxPoint x="4" y="-6" as="offset" />
          </mxGeometry>
        </mxCell>
        <mxCell id="9vqPiwgQLYRiUiiKCfZ5-3" style="edgeStyle=orthogonalEdgeStyle;rounded=0;orthogonalLoop=1;jettySize=auto;html=1;entryX=1;entryY=1;entryDx=0;entryDy=0;dashed=1;" edge="1" parent="KUTmv73prJjMfpJWbAJc-1" source="9vqPiwgQLYRiUiiKCfZ5-5" target="9vqPiwgQLYRiUiiKCfZ5-8">
          <mxGeometry relative="1" as="geometry">
            <Array as="points">
              <mxPoint x="-1149" y="397" />
            </Array>
          </mxGeometry>
        </mxCell>
        <mxCell id="9vqPiwgQLYRiUiiKCfZ5-4" value="idToken" style="edgeLabel;html=1;align=center;verticalAlign=middle;resizable=0;points=[];" vertex="1" connectable="0" parent="9vqPiwgQLYRiUiiKCfZ5-3">
          <mxGeometry x="-0.1673" relative="1" as="geometry">
            <mxPoint x="-25" y="10" as="offset" />
          </mxGeometry>
        </mxCell>
        <mxCell id="9vqPiwgQLYRiUiiKCfZ5-5" value="&lt;b&gt;&lt;i&gt;fnf-api-gateway&lt;/i&gt;&lt;/b&gt;" style="sketch=0;points=[[0,0,0],[0.25,0,0],[0.5,0,0],[0.75,0,0],[1,0,0],[0,1,0],[0.25,1,0],[0.5,1,0],[0.75,1,0],[1,1,0],[0,0.25,0],[0,0.5,0],[0,0.75,0],[1,0.25,0],[1,0.5,0],[1,0.75,0]];outlineConnect=0;fontColor=#232F3E;gradientColor=#945DF2;gradientDirection=north;fillColor=#5A30B5;strokeColor=#ffffff;dashed=0;verticalLabelPosition=bottom;verticalAlign=top;align=center;html=1;fontSize=12;fontStyle=0;aspect=fixed;shape=mxgraph.aws4.resourceIcon;resIcon=mxgraph.aws4.api_gateway;" vertex="1" parent="KUTmv73prJjMfpJWbAJc-1">
          <mxGeometry x="-1054" y="338" width="78" height="78" as="geometry" />
        </mxCell>
        <mxCell id="9vqPiwgQLYRiUiiKCfZ5-6" style="edgeStyle=orthogonalEdgeStyle;rounded=0;orthogonalLoop=1;jettySize=auto;html=1;" edge="1" parent="KUTmv73prJjMfpJWbAJc-1" source="9vqPiwgQLYRiUiiKCfZ5-8" target="9vqPiwgQLYRiUiiKCfZ5-5">
          <mxGeometry relative="1" as="geometry">
            <Array as="points">
              <mxPoint x="-1074" y="377" />
              <mxPoint x="-1074" y="377" />
            </Array>
          </mxGeometry>
        </mxCell>
        <mxCell id="9vqPiwgQLYRiUiiKCfZ5-7" value="POST /oauth2/token?cpf={{cpf}}" style="edgeLabel;html=1;align=center;verticalAlign=middle;resizable=0;points=[];" vertex="1" connectable="0" parent="9vqPiwgQLYRiUiiKCfZ5-6">
          <mxGeometry x="-0.5532" y="3" relative="1" as="geometry">
            <mxPoint x="62" y="-7" as="offset" />
          </mxGeometry>
        </mxCell>
        <mxCell id="9vqPiwgQLYRiUiiKCfZ5-8" value="&lt;b&gt;&lt;i&gt;client&lt;/i&gt;&lt;/b&gt;" style="image;aspect=fixed;perimeter=ellipsePerimeter;align=center;shadow=0;dashed=0;spacingTop=3;image=img/lib/active_directory/internet_globe.svg;labelBackgroundColor=default;fontColor=default;labelBorderColor=none;html=1;" vertex="1" parent="KUTmv73prJjMfpJWbAJc-1">
          <mxGeometry x="-1336" y="354" width="50" height="50" as="geometry" />
        </mxCell>
        <mxCell id="9vqPiwgQLYRiUiiKCfZ5-9" style="edgeStyle=orthogonalEdgeStyle;rounded=0;orthogonalLoop=1;jettySize=auto;html=1;" edge="1" parent="KUTmv73prJjMfpJWbAJc-1">
          <mxGeometry relative="1" as="geometry">
            <mxPoint x="-659" y="343" as="sourcePoint" />
            <mxPoint x="-381" y="343" as="targetPoint" />
            <Array as="points">
              <mxPoint x="-519" y="343" />
              <mxPoint x="-519" y="343" />
            </Array>
          </mxGeometry>
        </mxCell>
        <mxCell id="9vqPiwgQLYRiUiiKCfZ5-10" value="POST /oauth2/token" style="edgeLabel;html=1;align=center;verticalAlign=middle;resizable=0;points=[];" vertex="1" connectable="0" parent="9vqPiwgQLYRiUiiKCfZ5-9">
          <mxGeometry x="-0.1122" y="-1" relative="1" as="geometry">
            <mxPoint x="24" y="-11" as="offset" />
          </mxGeometry>
        </mxCell>
        <mxCell id="9vqPiwgQLYRiUiiKCfZ5-11" style="edgeStyle=orthogonalEdgeStyle;rounded=0;orthogonalLoop=1;jettySize=auto;html=1;dashed=1;" edge="1" parent="KUTmv73prJjMfpJWbAJc-1" source="9vqPiwgQLYRiUiiKCfZ5-21" target="9vqPiwgQLYRiUiiKCfZ5-5">
          <mxGeometry relative="1" as="geometry">
            <Array as="points">
              <mxPoint x="-866" y="396" />
              <mxPoint x="-866" y="396" />
            </Array>
          </mxGeometry>
        </mxCell>
        <mxCell id="9vqPiwgQLYRiUiiKCfZ5-12" value="idToken" style="edgeLabel;html=1;align=center;verticalAlign=middle;resizable=0;points=[];" vertex="1" connectable="0" parent="9vqPiwgQLYRiUiiKCfZ5-11">
          <mxGeometry x="0.1024" y="-1" relative="1" as="geometry">
            <mxPoint y="13" as="offset" />
          </mxGeometry>
        </mxCell>
        <mxCell id="9vqPiwgQLYRiUiiKCfZ5-13" style="edgeStyle=orthogonalEdgeStyle;rounded=0;orthogonalLoop=1;jettySize=auto;html=1;entryX=1;entryY=0.75;entryDx=0;entryDy=0;entryPerimeter=0;exitX=0.75;exitY=1;exitDx=0;exitDy=0;exitPerimeter=0;" edge="1" parent="KUTmv73prJjMfpJWbAJc-1" source="9vqPiwgQLYRiUiiKCfZ5-17" target="9vqPiwgQLYRiUiiKCfZ5-29">
          <mxGeometry relative="1" as="geometry">
            <Array as="points">
              <mxPoint x="-322" y="631" />
              <mxPoint x="-342" y="631" />
            </Array>
          </mxGeometry>
        </mxCell>
        <mxCell id="9vqPiwgQLYRiUiiKCfZ5-14" value="pre_token_generation" style="edgeLabel;html=1;align=center;verticalAlign=middle;resizable=0;points=[];" vertex="1" connectable="0" parent="9vqPiwgQLYRiUiiKCfZ5-13">
          <mxGeometry x="0.1353" y="-1" relative="1" as="geometry">
            <mxPoint x="-62" y="8" as="offset" />
          </mxGeometry>
        </mxCell>
        <mxCell id="9vqPiwgQLYRiUiiKCfZ5-15" style="edgeStyle=orthogonalEdgeStyle;rounded=0;orthogonalLoop=1;jettySize=auto;html=1;entryX=1;entryY=0.75;entryDx=0;entryDy=0;entryPerimeter=0;dashed=1;" edge="1" parent="KUTmv73prJjMfpJWbAJc-1">
          <mxGeometry relative="1" as="geometry">
            <Array as="points">
              <mxPoint x="-555" y="353" />
            </Array>
            <mxPoint x="-381" y="352.5" as="sourcePoint" />
            <mxPoint x="-659" y="352.5" as="targetPoint" />
          </mxGeometry>
        </mxCell>
        <mxCell id="9vqPiwgQLYRiUiiKCfZ5-16" value="token" style="edgeLabel;html=1;align=center;verticalAlign=middle;resizable=0;points=[];" vertex="1" connectable="0" parent="9vqPiwgQLYRiUiiKCfZ5-15">
          <mxGeometry x="-0.3161" y="-2" relative="1" as="geometry">
            <mxPoint x="-44" y="9" as="offset" />
          </mxGeometry>
        </mxCell>
        <mxCell id="oGPYP3FWtG8Wy7nJ3zoh-7" value="idToken" style="edgeStyle=orthogonalEdgeStyle;rounded=0;orthogonalLoop=1;jettySize=auto;html=1;entryX=1;entryY=0.75;entryDx=0;entryDy=0;entryPerimeter=0;dashed=1;" edge="1" parent="KUTmv73prJjMfpJWbAJc-1">
          <mxGeometry x="-0.1511" y="12" relative="1" as="geometry">
            <mxPoint x="-381" y="408.5" as="sourcePoint" />
            <mxPoint x="-659" y="408.5" as="targetPoint" />
            <Array as="points">
              <mxPoint x="-520" y="409" />
            </Array>
            <mxPoint as="offset" />
          </mxGeometry>
        </mxCell>
        <mxCell id="9vqPiwgQLYRiUiiKCfZ5-17" value="&lt;i&gt;&lt;b&gt;Cognito&lt;/b&gt;&lt;/i&gt;" style="sketch=0;points=[[0,0,0],[0.25,0,0],[0.5,0,0],[0.75,0,0],[1,0,0],[0,1,0],[0.25,1,0],[0.5,1,0],[0.75,1,0],[1,1,0],[0,0.25,0],[0,0.5,0],[0,0.75,0],[1,0.25,0],[1,0.5,0],[1,0.75,0]];outlineConnect=0;fontColor=#232F3E;gradientColor=#F54749;gradientDirection=north;fillColor=#C7131F;strokeColor=#ffffff;dashed=0;verticalLabelPosition=bottom;verticalAlign=top;align=center;html=1;fontSize=12;fontStyle=0;aspect=fixed;shape=mxgraph.aws4.resourceIcon;resIcon=mxgraph.aws4.cognito;" vertex="1" parent="KUTmv73prJjMfpJWbAJc-1">
          <mxGeometry x="-381" y="338" width="78" height="78" as="geometry" />
        </mxCell>
        <mxCell id="9vqPiwgQLYRiUiiKCfZ5-18" value="1" style="ellipse;whiteSpace=wrap;html=1;aspect=fixed;strokeWidth=2;fontFamily=Tahoma;spacingBottom=4;spacingRight=2;strokeColor=#d3d3d3;" vertex="1" parent="KUTmv73prJjMfpJWbAJc-1">
          <mxGeometry x="-1273" y="357" width="20" height="20" as="geometry" />
        </mxCell>
        <mxCell id="9vqPiwgQLYRiUiiKCfZ5-19" value="2" style="ellipse;whiteSpace=wrap;html=1;aspect=fixed;strokeWidth=2;fontFamily=Tahoma;spacingBottom=4;spacingRight=2;strokeColor=#d3d3d3;" vertex="1" parent="KUTmv73prJjMfpJWbAJc-1">
          <mxGeometry x="-930" y="357" width="20" height="20" as="geometry" />
        </mxCell>
        <mxCell id="9vqPiwgQLYRiUiiKCfZ5-20" value="3" style="ellipse;whiteSpace=wrap;html=1;aspect=fixed;strokeWidth=2;fontFamily=Tahoma;spacingBottom=4;spacingRight=2;strokeColor=#d3d3d3;" vertex="1" parent="KUTmv73prJjMfpJWbAJc-1">
          <mxGeometry x="-586" y="321" width="20" height="20" as="geometry" />
        </mxCell>
        <mxCell id="Wt42YdWwEv7a6FD37LJH-4" style="rounded=0;orthogonalLoop=1;jettySize=auto;html=1;entryX=0.25;entryY=0;entryDx=0;entryDy=0;entryPerimeter=0;exitX=0.25;exitY=1;exitDx=0;exitDy=0;exitPerimeter=0;" edge="1" parent="KUTmv73prJjMfpJWbAJc-1" source="9vqPiwgQLYRiUiiKCfZ5-21" target="Wt42YdWwEv7a6FD37LJH-2">
          <mxGeometry relative="1" as="geometry" />
        </mxCell>
        <mxCell id="Wt42YdWwEv7a6FD37LJH-5" value="POST /v1/cliente/identifica?cpf={{cpf}}" style="edgeLabel;html=1;align=center;verticalAlign=middle;resizable=0;points=[];" vertex="1" connectable="0" parent="Wt42YdWwEv7a6FD37LJH-4">
          <mxGeometry x="0.1294" y="4" relative="1" as="geometry">
            <mxPoint x="-97" y="-7" as="offset" />
          </mxGeometry>
        </mxCell>
        <mxCell id="oGPYP3FWtG8Wy7nJ3zoh-6" style="edgeStyle=orthogonalEdgeStyle;rounded=0;orthogonalLoop=1;jettySize=auto;html=1;" edge="1" parent="KUTmv73prJjMfpJWbAJc-1">
          <mxGeometry relative="1" as="geometry">
            <mxPoint x="-659" y="396" as="sourcePoint" />
            <mxPoint x="-381" y="396" as="targetPoint" />
            <Array as="points">
              <mxPoint x="-478" y="396" />
              <mxPoint x="-478" y="396" />
            </Array>
          </mxGeometry>
        </mxCell>
        <mxCell id="oGPYP3FWtG8Wy7nJ3zoh-13" value="POST /initiateAuth" style="edgeLabel;html=1;align=center;verticalAlign=middle;resizable=0;points=[];" vertex="1" connectable="0" parent="oGPYP3FWtG8Wy7nJ3zoh-6">
          <mxGeometry x="0.3022" y="2" relative="1" as="geometry">
            <mxPoint x="-36" y="-9" as="offset" />
          </mxGeometry>
        </mxCell>
        <mxCell id="9vqPiwgQLYRiUiiKCfZ5-21" value="&lt;b&gt;&lt;i&gt;fnf-lambda-authorizer&lt;/i&gt;&lt;/b&gt;" style="sketch=0;points=[[0,0,0],[0.25,0,0],[0.5,0,0],[0.75,0,0],[1,0,0],[0,1,0],[0.25,1,0],[0.5,1,0],[0.75,1,0],[1,1,0],[0,0.25,0],[0,0.5,0],[0,0.75,0],[1,0.25,0],[1,0.5,0],[1,0.75,0]];outlineConnect=0;fontColor=#232F3E;gradientColor=#F78E04;gradientDirection=north;fillColor=#D05C17;strokeColor=#ffffff;dashed=0;verticalLabelPosition=bottom;verticalAlign=top;align=center;html=1;fontSize=12;fontStyle=0;aspect=fixed;shape=mxgraph.aws4.resourceIcon;resIcon=mxgraph.aws4.lambda;" vertex="1" parent="KUTmv73prJjMfpJWbAJc-1">
          <mxGeometry x="-737" y="338" width="78" height="78" as="geometry" />
        </mxCell>
        <mxCell id="9vqPiwgQLYRiUiiKCfZ5-22" value="1.&amp;nbsp;O client se autentica informando as credenciais (cliente_id, client_secret, username e password)&lt;br style=&quot;font-size: 16px;&quot;&gt;2. O gateway realiza a integração com o&amp;nbsp;&lt;span style=&quot;border-color: var(--border-color); color: rgb(35, 47, 62); text-align: center; font-size: 16px;&quot;&gt;&lt;span style=&quot;border-color: var(--border-color); font-size: 16px;&quot;&gt;fnf-lambda-authorizer&lt;/span&gt;&lt;/span&gt;&lt;br style=&quot;font-size: 16px;&quot;&gt;3. O lambda authorizer realiza a autenticação client no Cognito&lt;br style=&quot;font-size: 16px;&quot;&gt;4. O lambda authorizer realiza a identificação do usuário (cliente fast-n-foodious), retornando dados de cpf, nome e email&lt;br style=&quot;font-size: 16px;&quot;&gt;5. O lambda authorizer realiza a autenticação do usuário&amp;nbsp;identificado no Cognito&lt;br style=&quot;border-color: var(--border-color); font-size: 16px;&quot;&gt;6. O Cognito invoca o lambda&amp;nbsp;fnf-lambda-pre-token-authorizer, para sobreposição do userAttributes&amp;nbsp;&lt;br style=&quot;border-color: var(--border-color); font-size: 16px;&quot;&gt;7. O Lambda&amp;nbsp;fnf-lambda-pre-token-authorizer cria a claim cpf e adiciona ao token&lt;br style=&quot;border-color: var(--border-color); font-size: 16px;&quot;&gt;8. O Cognito gera um token de autorização assinado, contendo a claim cpf&lt;br style=&quot;border-color: var(--border-color); font-size: 16px;&quot;&gt;9. O client recebe o idToken do usuário identificado" style="text;html=1;align=left;verticalAlign=middle;resizable=0;points=[];autosize=1;strokeColor=none;fillColor=none;fontSize=16;" vertex="1" parent="KUTmv73prJjMfpJWbAJc-1">
          <mxGeometry x="-1336" y="791" width="877" height="185" as="geometry" />
        </mxCell>
        <mxCell id="9vqPiwgQLYRiUiiKCfZ5-23" value="" style="dashed=0;html=1;shape=mxgraph.aws3.cloud;fillColor=#F58536;gradientColor=none;dashed=0;" vertex="1" parent="KUTmv73prJjMfpJWbAJc-1">
          <mxGeometry x="-1065" y="274" width="52" height="36" as="geometry" />
        </mxCell>
        <mxCell id="9vqPiwgQLYRiUiiKCfZ5-25" style="rounded=0;orthogonalLoop=1;jettySize=auto;html=1;entryX=1;entryY=0;entryDx=0;entryDy=0;dashed=1;endArrow=none;endFill=0;exitX=0.446;exitY=1.003;exitDx=0;exitDy=0;exitPerimeter=0;" edge="1" parent="KUTmv73prJjMfpJWbAJc-1" source="9vqPiwgQLYRiUiiKCfZ5-26" target="9vqPiwgQLYRiUiiKCfZ5-18">
          <mxGeometry relative="1" as="geometry">
            <mxPoint x="-1158.1795488227856" y="257" as="sourcePoint" />
          </mxGeometry>
        </mxCell>
        <mxCell id="9vqPiwgQLYRiUiiKCfZ5-26" value="&lt;div style=&quot;font-size: 10px;&quot;&gt;&lt;div style=&quot;border-color: var(--border-color);&quot;&gt;{&lt;/div&gt;&lt;div style=&quot;border-color: var(--border-color);&quot;&gt;&amp;nbsp; &amp;nbsp; &quot;client_id&quot;: &quot;{{client_id}}&quot;&lt;/div&gt;&lt;div style=&quot;border-color: var(--border-color);&quot;&gt;&amp;nbsp; &amp;nbsp; ,&quot;client_secret&quot;: &quot;{{client_secret}}&quot;&lt;/div&gt;&lt;div style=&quot;border-color: var(--border-color);&quot;&gt;&lt;span style=&quot;background-color: initial;&quot;&gt;}&lt;/span&gt;&lt;br&gt;&lt;/div&gt;&lt;/div&gt;" style="shape=note;whiteSpace=wrap;html=1;backgroundOutline=1;darkOpacity=0.05;size=15;dashed=1;align=left;fontSize=10;" vertex="1" parent="KUTmv73prJjMfpJWbAJc-1">
          <mxGeometry x="-1289" y="205" width="173" height="59" as="geometry" />
        </mxCell>
        <mxCell id="9vqPiwgQLYRiUiiKCfZ5-27" style="edgeStyle=orthogonalEdgeStyle;rounded=0;orthogonalLoop=1;jettySize=auto;html=1;entryX=0.25;entryY=1;entryDx=0;entryDy=0;entryPerimeter=0;dashed=1;exitX=1;exitY=0.25;exitDx=0;exitDy=0;exitPerimeter=0;" edge="1" parent="KUTmv73prJjMfpJWbAJc-1" source="9vqPiwgQLYRiUiiKCfZ5-29" target="9vqPiwgQLYRiUiiKCfZ5-17">
          <mxGeometry relative="1" as="geometry">
            <Array as="points">
              <mxPoint x="-502" y="589" />
              <mxPoint x="-361" y="589" />
            </Array>
          </mxGeometry>
        </mxCell>
        <mxCell id="9vqPiwgQLYRiUiiKCfZ5-28" value="claimsToAddOrOverride" style="edgeLabel;html=1;align=center;verticalAlign=middle;resizable=0;points=[];" vertex="1" connectable="0" parent="9vqPiwgQLYRiUiiKCfZ5-27">
          <mxGeometry x="-0.3463" y="3" relative="1" as="geometry">
            <mxPoint x="-16" y="10" as="offset" />
          </mxGeometry>
        </mxCell>
        <mxCell id="9vqPiwgQLYRiUiiKCfZ5-29" value="&lt;b&gt;&lt;i&gt;fnf-lambda-pre-token-authorizer&lt;/i&gt;&lt;/b&gt;" style="sketch=0;points=[[0,0,0],[0.25,0,0],[0.5,0,0],[0.75,0,0],[1,0,0],[0,1,0],[0.25,1,0],[0.5,1,0],[0.75,1,0],[1,1,0],[0,0.25,0],[0,0.5,0],[0,0.75,0],[1,0.25,0],[1,0.5,0],[1,0.75,0]];outlineConnect=0;fontColor=#232F3E;gradientColor=#F78E04;gradientDirection=north;fillColor=#D05C17;strokeColor=#ffffff;dashed=0;verticalLabelPosition=bottom;verticalAlign=top;align=center;html=1;fontSize=12;fontStyle=0;aspect=fixed;shape=mxgraph.aws4.resourceIcon;resIcon=mxgraph.aws4.lambda;" vertex="1" parent="KUTmv73prJjMfpJWbAJc-1">
          <mxGeometry x="-580" y="572" width="78" height="78" as="geometry" />
        </mxCell>
        <mxCell id="9vqPiwgQLYRiUiiKCfZ5-39" value="6" style="ellipse;whiteSpace=wrap;html=1;aspect=fixed;strokeWidth=2;fontFamily=Tahoma;spacingBottom=4;spacingRight=2;strokeColor=#d3d3d3;" vertex="1" parent="KUTmv73prJjMfpJWbAJc-1">
          <mxGeometry x="-1228" y="396" width="20" height="20" as="geometry" />
        </mxCell>
        <mxCell id="9vqPiwgQLYRiUiiKCfZ5-40" style="rounded=0;orthogonalLoop=1;jettySize=auto;html=1;entryX=0.5;entryY=1;entryDx=0;entryDy=0;dashed=1;endArrow=none;endFill=0;" edge="1" parent="KUTmv73prJjMfpJWbAJc-1" source="9vqPiwgQLYRiUiiKCfZ5-41" target="9vqPiwgQLYRiUiiKCfZ5-39">
          <mxGeometry relative="1" as="geometry" />
        </mxCell>
        <mxCell id="9vqPiwgQLYRiUiiKCfZ5-41" value="&lt;div style=&quot;font-size: 10px;&quot;&gt;&lt;div&gt;{&lt;/div&gt;&lt;div&gt;&amp;nbsp; ...&lt;/div&gt;&lt;div&gt;&amp;nbsp; &quot;token_use&quot;: &quot;id&quot;,&lt;/div&gt;&lt;div&gt;&amp;nbsp; &quot;cpf&quot;: {{cpf}},&lt;br&gt;&lt;/div&gt;&lt;div&gt;&lt;span style=&quot;background-color: initial;&quot;&gt;&amp;nbsp; &quot;email&quot;: {{email}}&lt;/span&gt;&lt;br&gt;&lt;/div&gt;&lt;div&gt;}&lt;/div&gt;&lt;/div&gt;" style="shape=note;whiteSpace=wrap;html=1;backgroundOutline=1;darkOpacity=0.05;size=15;dashed=1;align=left;fontSize=10;" vertex="1" parent="KUTmv73prJjMfpJWbAJc-1">
          <mxGeometry x="-1289" y="481" width="173" height="80" as="geometry" />
        </mxCell>
        <mxCell id="Wt42YdWwEv7a6FD37LJH-1" style="rounded=0;orthogonalLoop=1;jettySize=auto;html=1;endArrow=none;endFill=0;dashed=1;" edge="1" parent="KUTmv73prJjMfpJWbAJc-1" source="Wt42YdWwEv7a6FD37LJH-0" target="9vqPiwgQLYRiUiiKCfZ5-20">
          <mxGeometry relative="1" as="geometry" />
        </mxCell>
        <mxCell id="Wt42YdWwEv7a6FD37LJH-0" value="&lt;div style=&quot;font-size: 10px;&quot;&gt;{&lt;/div&gt;&lt;div style=&quot;font-size: 10px;&quot;&gt;&amp;nbsp; &amp;nbsp; &quot;client_id&quot;: &quot;{{client_id}}&quot;&lt;/div&gt;&lt;div style=&quot;font-size: 10px;&quot;&gt;&amp;nbsp; &amp;nbsp; ,&quot;client_secret&quot;: &quot;{{client_secret}}&quot;&lt;/div&gt;&lt;div style=&quot;font-size: 10px;&quot;&gt;&lt;span style=&quot;background-color: initial;&quot;&gt;}&lt;/span&gt;&lt;br&gt;&lt;/div&gt;&lt;div style=&quot;font-size: 10px;&quot;&gt;&lt;br style=&quot;font-size: 10px;&quot;&gt;&lt;/div&gt;" style="shape=note;whiteSpace=wrap;html=1;backgroundOutline=1;darkOpacity=0.05;size=15;dashed=1;align=left;fontSize=10;" vertex="1" parent="KUTmv73prJjMfpJWbAJc-1">
          <mxGeometry x="-698" y="205" width="198" height="58" as="geometry" />
        </mxCell>
        <mxCell id="oGPYP3FWtG8Wy7nJ3zoh-1" style="edgeStyle=orthogonalEdgeStyle;rounded=0;orthogonalLoop=1;jettySize=auto;html=1;" edge="1" parent="KUTmv73prJjMfpJWbAJc-1" source="Wt42YdWwEv7a6FD37LJH-2" target="oGPYP3FWtG8Wy7nJ3zoh-0">
          <mxGeometry relative="1" as="geometry" />
        </mxCell>
        <mxCell id="oGPYP3FWtG8Wy7nJ3zoh-2" value="select * from cliente where cpf={{cpf}}" style="edgeLabel;html=1;align=center;verticalAlign=middle;resizable=0;points=[];" vertex="1" connectable="0" parent="oGPYP3FWtG8Wy7nJ3zoh-1">
          <mxGeometry x="0.2189" relative="1" as="geometry">
            <mxPoint x="45" y="9" as="offset" />
          </mxGeometry>
        </mxCell>
        <mxCell id="oGPYP3FWtG8Wy7nJ3zoh-8" style="edgeStyle=orthogonalEdgeStyle;rounded=0;orthogonalLoop=1;jettySize=auto;html=1;entryX=0.75;entryY=1;entryDx=0;entryDy=0;entryPerimeter=0;dashed=1;" edge="1" parent="KUTmv73prJjMfpJWbAJc-1" source="Wt42YdWwEv7a6FD37LJH-2" target="9vqPiwgQLYRiUiiKCfZ5-21">
          <mxGeometry relative="1" as="geometry">
            <Array as="points">
              <mxPoint x="-678" y="494" />
            </Array>
          </mxGeometry>
        </mxCell>
        <mxCell id="oGPYP3FWtG8Wy7nJ3zoh-9" value="identificação" style="edgeLabel;html=1;align=center;verticalAlign=middle;resizable=0;points=[];" vertex="1" connectable="0" parent="oGPYP3FWtG8Wy7nJ3zoh-8">
          <mxGeometry x="0.1026" y="-3" relative="1" as="geometry">
            <mxPoint x="36" y="10" as="offset" />
          </mxGeometry>
        </mxCell>
        <mxCell id="Wt42YdWwEv7a6FD37LJH-2" value="&lt;b&gt;&lt;i&gt;fast-n-foodious&lt;/i&gt;&lt;/b&gt;" style="sketch=0;points=[[0,0,0],[0.25,0,0],[0.5,0,0],[0.75,0,0],[1,0,0],[0,1,0],[0.25,1,0],[0.5,1,0],[0.75,1,0],[1,1,0],[0,0.25,0],[0,0.5,0],[0,0.75,0],[1,0.25,0],[1,0.5,0],[1,0.75,0]];outlineConnect=0;fontColor=#232F3E;gradientColor=#F78E04;gradientDirection=north;fillColor=#D05C17;strokeColor=#ffffff;dashed=0;verticalLabelPosition=bottom;verticalAlign=top;align=center;html=1;fontSize=12;fontStyle=0;aspect=fixed;shape=mxgraph.aws4.resourceIcon;resIcon=mxgraph.aws4.fargate;" vertex="1" parent="KUTmv73prJjMfpJWbAJc-1">
          <mxGeometry x="-737" y="572" width="78" height="78" as="geometry" />
        </mxCell>
        <mxCell id="Wt42YdWwEv7a6FD37LJH-6" value="4" style="ellipse;whiteSpace=wrap;html=1;aspect=fixed;strokeWidth=2;fontFamily=Tahoma;spacingBottom=4;spacingRight=2;strokeColor=#d3d3d3;" vertex="1" parent="KUTmv73prJjMfpJWbAJc-1">
          <mxGeometry x="-922" y="489" width="20" height="20" as="geometry" />
        </mxCell>
        <mxCell id="oGPYP3FWtG8Wy7nJ3zoh-0" value="&lt;b&gt;&lt;i&gt;RDS&lt;/i&gt;&lt;/b&gt;" style="sketch=0;points=[[0,0,0],[0.25,0,0],[0.5,0,0],[0.75,0,0],[1,0,0],[0,1,0],[0.25,1,0],[0.5,1,0],[0.75,1,0],[1,1,0],[0,0.25,0],[0,0.5,0],[0,0.75,0],[1,0.25,0],[1,0.5,0],[1,0.75,0]];outlineConnect=0;fontColor=#232F3E;gradientColor=#4D72F3;gradientDirection=north;fillColor=#3334B9;strokeColor=#ffffff;dashed=0;verticalLabelPosition=bottom;verticalAlign=top;align=center;html=1;fontSize=12;fontStyle=0;aspect=fixed;shape=mxgraph.aws4.resourceIcon;resIcon=mxgraph.aws4.rds;" vertex="1" parent="KUTmv73prJjMfpJWbAJc-1">
          <mxGeometry x="-1054" y="572" width="78" height="78" as="geometry" />
        </mxCell>
        <mxCell id="a6OytUi9l0H6B-JrwYs4-0" style="rounded=0;orthogonalLoop=1;jettySize=auto;html=1;entryX=0.5;entryY=1;entryDx=0;entryDy=0;dashed=1;endArrow=none;endFill=0;" edge="1" parent="KUTmv73prJjMfpJWbAJc-1" source="RHbhmNd7BSc9PKiaJWE9-0" target="RHbhmNd7BSc9PKiaJWE9-1">
          <mxGeometry relative="1" as="geometry" />
        </mxCell>
        <mxCell id="RHbhmNd7BSc9PKiaJWE9-0" value="&lt;div style=&quot;font-size: 10px;&quot;&gt;{&lt;/div&gt;&lt;div style=&quot;font-size: 10px;&quot;&gt;&amp;nbsp; &amp;nbsp; &quot;client_id&quot;: &quot;{{client_id}}&quot;&lt;/div&gt;&lt;div style=&quot;font-size: 10px;&quot;&gt;&amp;nbsp; &amp;nbsp; ,&quot;client_secret&quot;: &quot;{{client_secret}}&quot;&lt;/div&gt;&lt;div style=&quot;font-size: 10px;&quot;&gt;&amp;nbsp; &amp;nbsp;&lt;span style=&quot;font-size: 10px;&quot;&gt; ,&quot;username&quot;: &quot;{{cpf}}&quot;&lt;br style=&quot;font-size: 10px;&quot;&gt;&lt;/span&gt;&lt;/div&gt;&lt;div style=&quot;font-size: 10px;&quot;&gt;&lt;span style=&quot;font-size: 10px;&quot;&gt;&amp;nbsp; &amp;nbsp; ,&quot;password&quot;: &quot;{{password}}&quot;&lt;/span&gt;&lt;br style=&quot;font-size: 10px;&quot;&gt;&lt;/div&gt;&lt;div style=&quot;font-size: 10px;&quot;&gt;}&lt;/div&gt;&lt;div style=&quot;font-size: 10px;&quot;&gt;&lt;br style=&quot;font-size: 10px;&quot;&gt;&lt;/div&gt;" style="shape=note;whiteSpace=wrap;html=1;backgroundOutline=1;darkOpacity=0.05;size=15;dashed=1;align=left;fontSize=10;fontStyle=0" vertex="1" parent="KUTmv73prJjMfpJWbAJc-1">
          <mxGeometry x="-570" y="470" width="198" height="81" as="geometry" />
        </mxCell>
        <mxCell id="RHbhmNd7BSc9PKiaJWE9-1" value="5" style="ellipse;whiteSpace=wrap;html=1;aspect=fixed;strokeWidth=2;fontFamily=Tahoma;spacingBottom=4;spacingRight=2;strokeColor=#d3d3d3;" vertex="1" parent="KUTmv73prJjMfpJWbAJc-1">
          <mxGeometry x="-583" y="375" width="20" height="20" as="geometry" />
        </mxCell>
        <mxCell id="ldQ18XtmJvz_QiecXLcZ-0" value="6" style="ellipse;whiteSpace=wrap;html=1;aspect=fixed;strokeWidth=2;fontFamily=Tahoma;spacingBottom=4;spacingRight=2;strokeColor=#d3d3d3;" vertex="1" parent="KUTmv73prJjMfpJWbAJc-1">
          <mxGeometry x="-469" y="631" width="20" height="20" as="geometry" />
        </mxCell>
        <mxCell id="N7byMyHGwKg1MNSmDIrG-0" value="7" style="ellipse;whiteSpace=wrap;html=1;aspect=fixed;strokeWidth=2;fontFamily=Tahoma;spacingBottom=4;spacingRight=2;strokeColor=#d3d3d3;" vertex="1" parent="KUTmv73prJjMfpJWbAJc-1">
          <mxGeometry x="-496" y="588" width="20" height="20" as="geometry" />
        </mxCell>
        <mxCell id="N7byMyHGwKg1MNSmDIrG-1" value="8" style="ellipse;whiteSpace=wrap;html=1;aspect=fixed;strokeWidth=2;fontFamily=Tahoma;spacingBottom=4;spacingRight=2;strokeColor=#d3d3d3;" vertex="1" parent="KUTmv73prJjMfpJWbAJc-1">
          <mxGeometry x="-540" y="411" width="20" height="20" as="geometry" />
        </mxCell>
        <mxCell id="N7byMyHGwKg1MNSmDIrG-3" value="&lt;b style=&quot;font-size: 30px;&quot;&gt;&lt;font style=&quot;font-size: 30px;&quot;&gt;Autenticação de Usuário Identificado&lt;/font&gt;&lt;/b&gt;" style="text;html=1;align=center;verticalAlign=middle;resizable=0;points=[];autosize=1;strokeColor=none;fillColor=none;fontSize=30;" vertex="1" parent="KUTmv73prJjMfpJWbAJc-1">
          <mxGeometry x="-1464" y="114" width="546" height="48" as="geometry" />
        </mxCell>
      </root>
    </mxGraphModel>
  </diagram>
  <diagram id="95CKPHXzbP6OgGtziWdo" name="Cadastro de Usuários">
    <mxGraphModel dx="3537" dy="1012" grid="0" gridSize="10" guides="1" tooltips="1" connect="1" arrows="1" fold="1" page="1" pageScale="1" pageWidth="1654" pageHeight="1169" math="0" shadow="0">
      <root>
        <mxCell id="0" />
        <mxCell id="1" parent="0" />
        <mxCell id="27FCN3K02vGXMlbeFht9-1" value="" style="rounded=0;whiteSpace=wrap;html=1;strokeColor=#777C8F;" vertex="1" parent="1">
          <mxGeometry x="-1463" y="171" width="1273" height="827" as="geometry" />
        </mxCell>
        <mxCell id="27FCN3K02vGXMlbeFht9-2" value="" style="rounded=1;arcSize=10;dashed=0;fillColor=none;gradientColor=none;strokeWidth=2;strokeColor=#777C8F;" vertex="1" parent="1">
          <mxGeometry x="-1087" y="298" width="828" height="408" as="geometry" />
        </mxCell>
        <mxCell id="27FCN3K02vGXMlbeFht9-3" style="edgeStyle=orthogonalEdgeStyle;rounded=0;orthogonalLoop=1;jettySize=auto;html=1;" edge="1" parent="1" source="27FCN3K02vGXMlbeFht9-7" target="27FCN3K02vGXMlbeFht9-28">
          <mxGeometry relative="1" as="geometry" />
        </mxCell>
        <mxCell id="27FCN3K02vGXMlbeFht9-4" value="lambda integration" style="edgeLabel;html=1;align=center;verticalAlign=middle;resizable=0;points=[];" vertex="1" connectable="0" parent="27FCN3K02vGXMlbeFht9-3">
          <mxGeometry x="-0.0945" y="4" relative="1" as="geometry">
            <mxPoint x="4" y="-6" as="offset" />
          </mxGeometry>
        </mxCell>
        <mxCell id="27FCN3K02vGXMlbeFht9-5" style="edgeStyle=orthogonalEdgeStyle;rounded=0;orthogonalLoop=1;jettySize=auto;html=1;entryX=1;entryY=1;entryDx=0;entryDy=0;dashed=1;" edge="1" parent="1" source="27FCN3K02vGXMlbeFht9-7" target="27FCN3K02vGXMlbeFht9-10">
          <mxGeometry relative="1" as="geometry">
            <Array as="points">
              <mxPoint x="-1149" y="397" />
            </Array>
          </mxGeometry>
        </mxCell>
        <mxCell id="27FCN3K02vGXMlbeFht9-6" value="http 201" style="edgeLabel;html=1;align=center;verticalAlign=middle;resizable=0;points=[];" vertex="1" connectable="0" parent="27FCN3K02vGXMlbeFht9-5">
          <mxGeometry x="-0.1673" relative="1" as="geometry">
            <mxPoint x="-25" y="10" as="offset" />
          </mxGeometry>
        </mxCell>
        <mxCell id="27FCN3K02vGXMlbeFht9-7" value="&lt;b&gt;&lt;i&gt;fnf-api-gateway&lt;/i&gt;&lt;/b&gt;" style="sketch=0;points=[[0,0,0],[0.25,0,0],[0.5,0,0],[0.75,0,0],[1,0,0],[0,1,0],[0.25,1,0],[0.5,1,0],[0.75,1,0],[1,1,0],[0,0.25,0],[0,0.5,0],[0,0.75,0],[1,0.25,0],[1,0.5,0],[1,0.75,0]];outlineConnect=0;fontColor=#232F3E;gradientColor=#945DF2;gradientDirection=north;fillColor=#5A30B5;strokeColor=#ffffff;dashed=0;verticalLabelPosition=bottom;verticalAlign=top;align=center;html=1;fontSize=12;fontStyle=0;aspect=fixed;shape=mxgraph.aws4.resourceIcon;resIcon=mxgraph.aws4.api_gateway;" vertex="1" parent="1">
          <mxGeometry x="-1054" y="338" width="78" height="78" as="geometry" />
        </mxCell>
        <mxCell id="27FCN3K02vGXMlbeFht9-8" style="edgeStyle=orthogonalEdgeStyle;rounded=0;orthogonalLoop=1;jettySize=auto;html=1;" edge="1" parent="1" source="27FCN3K02vGXMlbeFht9-10" target="27FCN3K02vGXMlbeFht9-7">
          <mxGeometry relative="1" as="geometry">
            <Array as="points">
              <mxPoint x="-1074" y="377" />
              <mxPoint x="-1074" y="377" />
            </Array>
          </mxGeometry>
        </mxCell>
        <mxCell id="27FCN3K02vGXMlbeFht9-9" value="POST /v2/cliente" style="edgeLabel;html=1;align=center;verticalAlign=middle;resizable=0;points=[];" vertex="1" connectable="0" parent="27FCN3K02vGXMlbeFht9-8">
          <mxGeometry x="-0.5532" y="3" relative="1" as="geometry">
            <mxPoint x="62" y="-7" as="offset" />
          </mxGeometry>
        </mxCell>
        <mxCell id="27FCN3K02vGXMlbeFht9-10" value="&lt;b&gt;&lt;i&gt;client&lt;/i&gt;&lt;/b&gt;" style="image;aspect=fixed;perimeter=ellipsePerimeter;align=center;shadow=0;dashed=0;spacingTop=3;image=img/lib/active_directory/internet_globe.svg;labelBackgroundColor=default;fontColor=default;labelBorderColor=none;html=1;" vertex="1" parent="1">
          <mxGeometry x="-1336" y="354" width="50" height="50" as="geometry" />
        </mxCell>
        <mxCell id="27FCN3K02vGXMlbeFht9-11" style="edgeStyle=orthogonalEdgeStyle;rounded=0;orthogonalLoop=1;jettySize=auto;html=1;" edge="1" parent="1">
          <mxGeometry relative="1" as="geometry">
            <mxPoint x="-659" y="376.45" as="sourcePoint" />
            <mxPoint x="-381" y="376.45" as="targetPoint" />
            <Array as="points">
              <mxPoint x="-519" y="376.45" />
              <mxPoint x="-519" y="376.45" />
            </Array>
          </mxGeometry>
        </mxCell>
        <mxCell id="27FCN3K02vGXMlbeFht9-12" value="POST /adminCreateUser" style="edgeLabel;html=1;align=center;verticalAlign=middle;resizable=0;points=[];" vertex="1" connectable="0" parent="27FCN3K02vGXMlbeFht9-11">
          <mxGeometry x="-0.1122" y="-1" relative="1" as="geometry">
            <mxPoint x="24" y="-11" as="offset" />
          </mxGeometry>
        </mxCell>
        <mxCell id="27FCN3K02vGXMlbeFht9-13" style="edgeStyle=orthogonalEdgeStyle;rounded=0;orthogonalLoop=1;jettySize=auto;html=1;dashed=1;" edge="1" parent="1" source="27FCN3K02vGXMlbeFht9-28" target="27FCN3K02vGXMlbeFht9-7">
          <mxGeometry relative="1" as="geometry">
            <Array as="points">
              <mxPoint x="-866" y="396" />
              <mxPoint x="-866" y="396" />
            </Array>
          </mxGeometry>
        </mxCell>
        <mxCell id="27FCN3K02vGXMlbeFht9-14" value="http 201" style="edgeLabel;html=1;align=center;verticalAlign=middle;resizable=0;points=[];" vertex="1" connectable="0" parent="27FCN3K02vGXMlbeFht9-13">
          <mxGeometry x="0.1024" y="-1" relative="1" as="geometry">
            <mxPoint y="13" as="offset" />
          </mxGeometry>
        </mxCell>
        <mxCell id="27FCN3K02vGXMlbeFht9-15" style="edgeStyle=orthogonalEdgeStyle;rounded=0;orthogonalLoop=1;jettySize=auto;html=1;entryX=1;entryY=0.75;entryDx=0;entryDy=0;entryPerimeter=0;" edge="1" parent="1" source="27FCN3K02vGXMlbeFht9-20">
          <mxGeometry relative="1" as="geometry">
            <Array as="points">
              <mxPoint x="-310" y="642" />
              <mxPoint x="-342" y="642" />
            </Array>
            <mxPoint x="-309.97142857142853" y="427" as="sourcePoint" />
            <mxPoint x="-570" y="641.5" as="targetPoint" />
          </mxGeometry>
        </mxCell>
        <mxCell id="27FCN3K02vGXMlbeFht9-16" value="pre_sign_up" style="edgeLabel;html=1;align=center;verticalAlign=middle;resizable=0;points=[];" vertex="1" connectable="0" parent="27FCN3K02vGXMlbeFht9-15">
          <mxGeometry x="0.1353" y="-1" relative="1" as="geometry">
            <mxPoint x="-83" y="9" as="offset" />
          </mxGeometry>
        </mxCell>
        <mxCell id="27FCN3K02vGXMlbeFht9-19" value="http 201" style="edgeStyle=orthogonalEdgeStyle;rounded=0;orthogonalLoop=1;jettySize=auto;html=1;entryX=1;entryY=0.75;entryDx=0;entryDy=0;entryPerimeter=0;dashed=1;" edge="1" parent="1">
          <mxGeometry x="-0.1511" y="12" relative="1" as="geometry">
            <mxPoint x="-381" y="396" as="sourcePoint" />
            <mxPoint x="-659" y="396" as="targetPoint" />
            <Array as="points">
              <mxPoint x="-520" y="396.5" />
            </Array>
            <mxPoint as="offset" />
          </mxGeometry>
        </mxCell>
        <mxCell id="ACPjKESdqa9sznW5wM3G-2" style="edgeStyle=orthogonalEdgeStyle;rounded=0;orthogonalLoop=1;jettySize=auto;html=1;entryX=1;entryY=0.5;entryDx=0;entryDy=0;entryPerimeter=0;dashed=1;exitX=0.5;exitY=1;exitDx=0;exitDy=0;exitPerimeter=0;" edge="1" parent="1" source="27FCN3K02vGXMlbeFht9-20">
          <mxGeometry relative="1" as="geometry">
            <mxPoint x="-341.97142857142853" y="411" as="sourcePoint" />
            <mxPoint x="-570" y="606" as="targetPoint" />
            <Array as="points">
              <mxPoint x="-342" y="605" />
              <mxPoint x="-475" y="605" />
            </Array>
          </mxGeometry>
        </mxCell>
        <mxCell id="ACPjKESdqa9sznW5wM3G-4" value="token" style="edgeLabel;html=1;align=center;verticalAlign=middle;resizable=0;points=[];" vertex="1" connectable="0" parent="ACPjKESdqa9sznW5wM3G-2">
          <mxGeometry x="0.0984" relative="1" as="geometry">
            <mxPoint x="18" as="offset" />
          </mxGeometry>
        </mxCell>
        <mxCell id="27FCN3K02vGXMlbeFht9-20" value="&lt;i&gt;&lt;b&gt;Cognito&lt;/b&gt;&lt;/i&gt;" style="sketch=0;points=[[0,0,0],[0.25,0,0],[0.5,0,0],[0.75,0,0],[1,0,0],[0,1,0],[0.25,1,0],[0.5,1,0],[0.75,1,0],[1,1,0],[0,0.25,0],[0,0.5,0],[0,0.75,0],[1,0.25,0],[1,0.5,0],[1,0.75,0]];outlineConnect=0;fontColor=#232F3E;gradientColor=#F54749;gradientDirection=north;fillColor=#C7131F;strokeColor=#ffffff;dashed=0;verticalLabelPosition=bottom;verticalAlign=top;align=center;html=1;fontSize=12;fontStyle=0;aspect=fixed;shape=mxgraph.aws4.resourceIcon;resIcon=mxgraph.aws4.cognito;" vertex="1" parent="1">
          <mxGeometry x="-381" y="338" width="78" height="78" as="geometry" />
        </mxCell>
        <mxCell id="27FCN3K02vGXMlbeFht9-21" value="1" style="ellipse;whiteSpace=wrap;html=1;aspect=fixed;strokeWidth=2;fontFamily=Tahoma;spacingBottom=4;spacingRight=2;strokeColor=#d3d3d3;" vertex="1" parent="1">
          <mxGeometry x="-1273" y="357" width="20" height="20" as="geometry" />
        </mxCell>
        <mxCell id="27FCN3K02vGXMlbeFht9-22" value="2" style="ellipse;whiteSpace=wrap;html=1;aspect=fixed;strokeWidth=2;fontFamily=Tahoma;spacingBottom=4;spacingRight=2;strokeColor=#d3d3d3;" vertex="1" parent="1">
          <mxGeometry x="-930" y="357" width="20" height="20" as="geometry" />
        </mxCell>
        <mxCell id="27FCN3K02vGXMlbeFht9-23" value="3" style="ellipse;whiteSpace=wrap;html=1;aspect=fixed;strokeWidth=2;fontFamily=Tahoma;spacingBottom=4;spacingRight=2;strokeColor=#d3d3d3;" vertex="1" parent="1">
          <mxGeometry x="-600" y="354" width="20" height="20" as="geometry" />
        </mxCell>
        <mxCell id="27FCN3K02vGXMlbeFht9-28" value="&lt;b&gt;&lt;i&gt;fnf-lambda-create-user&lt;/i&gt;&lt;/b&gt;" style="sketch=0;points=[[0,0,0],[0.25,0,0],[0.5,0,0],[0.75,0,0],[1,0,0],[0,1,0],[0.25,1,0],[0.5,1,0],[0.75,1,0],[1,1,0],[0,0.25,0],[0,0.5,0],[0,0.75,0],[1,0.25,0],[1,0.5,0],[1,0.75,0]];outlineConnect=0;fontColor=#232F3E;gradientColor=#F78E04;gradientDirection=north;fillColor=#D05C17;strokeColor=#ffffff;dashed=0;verticalLabelPosition=bottom;verticalAlign=top;align=center;html=1;fontSize=12;fontStyle=0;aspect=fixed;shape=mxgraph.aws4.resourceIcon;resIcon=mxgraph.aws4.lambda;" vertex="1" parent="1">
          <mxGeometry x="-737" y="338" width="78" height="78" as="geometry" />
        </mxCell>
        <mxCell id="27FCN3K02vGXMlbeFht9-29" value="1.&amp;nbsp;O client realiza o cadastro de usuário, passando os dados de nome, email, cpf e senha&lt;br&gt;2. O gateway realiza a integração com o fnf-lambda-create-user&lt;br style=&quot;font-size: 16px;&quot;&gt;3. O lambda create user inicia o cadastro de novo usuário no Cognito&lt;br style=&quot;font-size: 16px;&quot;&gt;4. O Cognito invoca o lambda&amp;nbsp;fnf-lambda-pre-singup, para inclusão de usuário na aplicação (cliente fast-n-foodious)&lt;br style=&quot;font-size: 16px;&quot;&gt;5. O lambda fnf-lambda-pre-singup&amp;nbsp;realiza a autenticação client no Cognito&lt;br style=&quot;border-color: var(--border-color); font-size: 16px;&quot;&gt;6. O lambda fnf-lambda-pre-singup realiza o cadastro do usuário na aplicação (cliente fast-n-foodious)&lt;br style=&quot;border-color: var(--border-color); font-size: 16px;&quot;&gt;7. O client recebe http 201 como confirmação de usuário cadastrado" style="text;html=1;align=left;verticalAlign=middle;resizable=0;points=[];autosize=1;strokeColor=none;fillColor=none;fontSize=16;" vertex="1" parent="1">
          <mxGeometry x="-1336" y="809" width="840" height="150" as="geometry" />
        </mxCell>
        <mxCell id="27FCN3K02vGXMlbeFht9-30" value="" style="dashed=0;html=1;shape=mxgraph.aws3.cloud;fillColor=#F58536;gradientColor=none;dashed=0;" vertex="1" parent="1">
          <mxGeometry x="-1065" y="274" width="52" height="36" as="geometry" />
        </mxCell>
        <mxCell id="27FCN3K02vGXMlbeFht9-31" style="rounded=0;orthogonalLoop=1;jettySize=auto;html=1;entryX=1;entryY=0;entryDx=0;entryDy=0;dashed=1;endArrow=none;endFill=0;exitX=0.446;exitY=1.003;exitDx=0;exitDy=0;exitPerimeter=0;" edge="1" parent="1" source="27FCN3K02vGXMlbeFht9-32" target="27FCN3K02vGXMlbeFht9-21">
          <mxGeometry relative="1" as="geometry">
            <mxPoint x="-1158.1795488227856" y="257" as="sourcePoint" />
          </mxGeometry>
        </mxCell>
        <mxCell id="27FCN3K02vGXMlbeFht9-32" value="&lt;div style=&quot;font-size: 10px;&quot;&gt;&lt;div style=&quot;border-color: var(--border-color);&quot;&gt;{&lt;/div&gt;&lt;div style=&quot;border-color: var(--border-color);&quot;&gt;&amp;nbsp; &amp;nbsp; &quot;nome&quot;: &quot;{{nome}}&quot;&lt;/div&gt;&lt;div style=&quot;border-color: var(--border-color);&quot;&gt;&amp;nbsp; &amp;nbsp; ,&quot;email&quot;: &quot;{{email}}&quot;&lt;/div&gt;&lt;div style=&quot;border-color: var(--border-color);&quot;&gt;&amp;nbsp; &amp;nbsp;&lt;span style=&quot;border-color: var(--border-color);&quot;&gt;&amp;nbsp;,&quot;cpf&quot;: &quot;{{cpf}}&quot;&lt;br style=&quot;border-color: var(--border-color);&quot;&gt;&lt;/span&gt;&lt;/div&gt;&lt;div style=&quot;border-color: var(--border-color);&quot;&gt;&lt;span style=&quot;background-color: initial;&quot;&gt;}&lt;/span&gt;&lt;br&gt;&lt;/div&gt;&lt;/div&gt;" style="shape=note;whiteSpace=wrap;html=1;backgroundOutline=1;darkOpacity=0.05;size=15;dashed=1;align=left;fontSize=10;" vertex="1" parent="1">
          <mxGeometry x="-1289" y="205" width="173" height="66" as="geometry" />
        </mxCell>
        <mxCell id="Hzbbk1CtsA6qd1ZYFBjP-1" style="edgeStyle=orthogonalEdgeStyle;rounded=0;orthogonalLoop=1;jettySize=auto;html=1;entryX=1;entryY=0.5;entryDx=0;entryDy=0;entryPerimeter=0;" edge="1" parent="1">
          <mxGeometry relative="1" as="geometry">
            <mxPoint x="-648" y="599" as="sourcePoint" />
            <mxPoint x="-787.5" y="599" as="targetPoint" />
          </mxGeometry>
        </mxCell>
        <mxCell id="ACPjKESdqa9sznW5wM3G-5" value="POST /v1/cliente" style="edgeLabel;html=1;align=center;verticalAlign=middle;resizable=0;points=[];" vertex="1" connectable="0" parent="Hzbbk1CtsA6qd1ZYFBjP-1">
          <mxGeometry x="0.2023" y="2" relative="1" as="geometry">
            <mxPoint x="27" y="-12" as="offset" />
          </mxGeometry>
        </mxCell>
        <mxCell id="Hzbbk1CtsA6qd1ZYFBjP-2" style="edgeStyle=orthogonalEdgeStyle;rounded=0;orthogonalLoop=1;jettySize=auto;html=1;entryX=0.75;entryY=1;entryDx=0;entryDy=0;entryPerimeter=0;" edge="1" parent="1" source="27FCN3K02vGXMlbeFht9-35" target="27FCN3K02vGXMlbeFht9-20">
          <mxGeometry relative="1" as="geometry">
            <Array as="points">
              <mxPoint x="-322" y="630" />
            </Array>
          </mxGeometry>
        </mxCell>
        <mxCell id="ACPjKESdqa9sznW5wM3G-1" value="POST /oauth2/token" style="edgeLabel;html=1;align=center;verticalAlign=middle;resizable=0;points=[];" vertex="1" connectable="0" parent="Hzbbk1CtsA6qd1ZYFBjP-2">
          <mxGeometry x="-0.4551" y="2" relative="1" as="geometry">
            <mxPoint y="-7" as="offset" />
          </mxGeometry>
        </mxCell>
        <mxCell id="ACPjKESdqa9sznW5wM3G-10" style="edgeStyle=orthogonalEdgeStyle;rounded=0;orthogonalLoop=1;jettySize=auto;html=1;entryX=0.25;entryY=1;entryDx=0;entryDy=0;entryPerimeter=0;dashed=1;" edge="1" parent="1" source="27FCN3K02vGXMlbeFht9-35" target="27FCN3K02vGXMlbeFht9-20">
          <mxGeometry relative="1" as="geometry">
            <Array as="points">
              <mxPoint x="-362" y="580" />
            </Array>
          </mxGeometry>
        </mxCell>
        <mxCell id="ACPjKESdqa9sznW5wM3G-11" value="http 201" style="edgeLabel;html=1;align=center;verticalAlign=middle;resizable=0;points=[];" vertex="1" connectable="0" parent="ACPjKESdqa9sznW5wM3G-10">
          <mxGeometry x="-0.3411" y="2" relative="1" as="geometry">
            <mxPoint x="-13" y="-6" as="offset" />
          </mxGeometry>
        </mxCell>
        <mxCell id="27FCN3K02vGXMlbeFht9-35" value="&lt;b&gt;&lt;i&gt;fnf-lambda-pre-signup&lt;/i&gt;&lt;/b&gt;" style="sketch=0;points=[[0,0,0],[0.25,0,0],[0.5,0,0],[0.75,0,0],[1,0,0],[0,1,0],[0.25,1,0],[0.5,1,0],[0.75,1,0],[1,1,0],[0,0.25,0],[0,0.5,0],[0,0.75,0],[1,0.25,0],[1,0.5,0],[1,0.75,0]];outlineConnect=0;fontColor=#232F3E;gradientColor=#F78E04;gradientDirection=north;fillColor=#D05C17;strokeColor=#ffffff;dashed=0;verticalLabelPosition=bottom;verticalAlign=top;align=center;html=1;fontSize=12;fontStyle=0;aspect=fixed;shape=mxgraph.aws4.resourceIcon;resIcon=mxgraph.aws4.lambda;" vertex="1" parent="1">
          <mxGeometry x="-648" y="572" width="78" height="78" as="geometry" />
        </mxCell>
        <mxCell id="27FCN3K02vGXMlbeFht9-36" value="7" style="ellipse;whiteSpace=wrap;html=1;aspect=fixed;strokeWidth=2;fontFamily=Tahoma;spacingBottom=4;spacingRight=2;strokeColor=#d3d3d3;" vertex="1" parent="1">
          <mxGeometry x="-1228" y="396" width="20" height="20" as="geometry" />
        </mxCell>
        <mxCell id="27FCN3K02vGXMlbeFht9-39" style="rounded=0;orthogonalLoop=1;jettySize=auto;html=1;endArrow=none;endFill=0;dashed=1;" edge="1" parent="1" source="27FCN3K02vGXMlbeFht9-40" target="27FCN3K02vGXMlbeFht9-23">
          <mxGeometry relative="1" as="geometry" />
        </mxCell>
        <mxCell id="27FCN3K02vGXMlbeFht9-40" value="&lt;div style=&quot;font-size: 10px;&quot;&gt;&lt;div style=&quot;border-color: var(--border-color);&quot;&gt;&lt;div style=&quot;border-color: var(--border-color);&quot;&gt;&lt;div style=&quot;border-color: var(--border-color);&quot;&gt;{&lt;/div&gt;&lt;div style=&quot;border-color: var(--border-color);&quot;&gt;&amp;nbsp; &amp;nbsp; &quot;name&quot;: &quot;{{nome}}&quot;&lt;/div&gt;&lt;div style=&quot;border-color: var(--border-color);&quot;&gt;&amp;nbsp; &amp;nbsp; ,&quot;email&quot;: &quot;{{email}}&quot;&lt;/div&gt;&lt;div style=&quot;border-color: var(--border-color);&quot;&gt;&amp;nbsp; &amp;nbsp;&amp;nbsp;,&quot;custom:cpf&quot;: &quot;{{cpf}}&quot;&lt;br style=&quot;border-color: var(--border-color);&quot;&gt;&lt;/div&gt;&lt;div style=&quot;border-color: var(--border-color);&quot;&gt;&amp;nbsp; &amp;nbsp; ,&quot;custom:anonimo&quot;: false&lt;br style=&quot;border-color: var(--border-color);&quot;&gt;&lt;/div&gt;&lt;div style=&quot;border-color: var(--border-color);&quot;&gt;&amp;nbsp; &amp;nbsp; ,&quot;password&quot;: {password}&lt;br&gt;&lt;/div&gt;&lt;div style=&quot;border-color: var(--border-color);&quot;&gt;}&lt;/div&gt;&lt;/div&gt;&lt;/div&gt;&lt;/div&gt;" style="shape=note;whiteSpace=wrap;html=1;backgroundOutline=1;darkOpacity=0.05;size=15;dashed=1;align=left;fontSize=10;" vertex="1" parent="1">
          <mxGeometry x="-698" y="205" width="198" height="75" as="geometry" />
        </mxCell>
        <mxCell id="27FCN3K02vGXMlbeFht9-41" style="edgeStyle=orthogonalEdgeStyle;rounded=0;orthogonalLoop=1;jettySize=auto;html=1;" edge="1" parent="1" source="27FCN3K02vGXMlbeFht9-45" target="27FCN3K02vGXMlbeFht9-47">
          <mxGeometry relative="1" as="geometry" />
        </mxCell>
        <mxCell id="27FCN3K02vGXMlbeFht9-42" value="insert into&amp;nbsp;cliente" style="edgeLabel;html=1;align=center;verticalAlign=middle;resizable=0;points=[];" vertex="1" connectable="0" parent="27FCN3K02vGXMlbeFht9-41">
          <mxGeometry x="0.2189" relative="1" as="geometry">
            <mxPoint x="19" y="9" as="offset" />
          </mxGeometry>
        </mxCell>
        <mxCell id="ACPjKESdqa9sznW5wM3G-9" style="edgeStyle=orthogonalEdgeStyle;rounded=0;orthogonalLoop=1;jettySize=auto;html=1;dashed=1;" edge="1" parent="1" source="27FCN3K02vGXMlbeFht9-45" target="27FCN3K02vGXMlbeFht9-35">
          <mxGeometry relative="1" as="geometry">
            <Array as="points">
              <mxPoint x="-710" y="630" />
              <mxPoint x="-710" y="630" />
            </Array>
          </mxGeometry>
        </mxCell>
        <mxCell id="27FCN3K02vGXMlbeFht9-45" value="&lt;b&gt;&lt;i&gt;fast-n-foodious&lt;/i&gt;&lt;/b&gt;" style="sketch=0;points=[[0,0,0],[0.25,0,0],[0.5,0,0],[0.75,0,0],[1,0,0],[0,1,0],[0.25,1,0],[0.5,1,0],[0.75,1,0],[1,1,0],[0,0.25,0],[0,0.5,0],[0,0.75,0],[1,0.25,0],[1,0.5,0],[1,0.75,0]];outlineConnect=0;fontColor=#232F3E;gradientColor=#F78E04;gradientDirection=north;fillColor=#D05C17;strokeColor=#ffffff;dashed=0;verticalLabelPosition=bottom;verticalAlign=top;align=center;html=1;fontSize=12;fontStyle=0;aspect=fixed;shape=mxgraph.aws4.resourceIcon;resIcon=mxgraph.aws4.fargate;" vertex="1" parent="1">
          <mxGeometry x="-865.5" y="572" width="78" height="78" as="geometry" />
        </mxCell>
        <mxCell id="27FCN3K02vGXMlbeFht9-47" value="&lt;b&gt;&lt;i&gt;RDS&lt;/i&gt;&lt;/b&gt;" style="sketch=0;points=[[0,0,0],[0.25,0,0],[0.5,0,0],[0.75,0,0],[1,0,0],[0,1,0],[0.25,1,0],[0.5,1,0],[0.75,1,0],[1,1,0],[0,0.25,0],[0,0.5,0],[0,0.75,0],[1,0.25,0],[1,0.5,0],[1,0.75,0]];outlineConnect=0;fontColor=#232F3E;gradientColor=#4D72F3;gradientDirection=north;fillColor=#3334B9;strokeColor=#ffffff;dashed=0;verticalLabelPosition=bottom;verticalAlign=top;align=center;html=1;fontSize=12;fontStyle=0;aspect=fixed;shape=mxgraph.aws4.resourceIcon;resIcon=mxgraph.aws4.rds;" vertex="1" parent="1">
          <mxGeometry x="-1054" y="572" width="78" height="78" as="geometry" />
        </mxCell>
        <mxCell id="27FCN3K02vGXMlbeFht9-51" value="4" style="ellipse;whiteSpace=wrap;html=1;aspect=fixed;strokeWidth=2;fontFamily=Tahoma;spacingBottom=4;spacingRight=2;strokeColor=#d3d3d3;" vertex="1" parent="1">
          <mxGeometry x="-500" y="640" width="20" height="20" as="geometry" />
        </mxCell>
        <mxCell id="27FCN3K02vGXMlbeFht9-54" value="&lt;b style=&quot;font-size: 30px;&quot;&gt;&lt;font style=&quot;font-size: 30px;&quot;&gt;Cadastro de Usuários&lt;/font&gt;&lt;/b&gt;" style="text;html=1;align=center;verticalAlign=middle;resizable=0;points=[];autosize=1;strokeColor=none;fillColor=none;fontSize=30;" vertex="1" parent="1">
          <mxGeometry x="-1463" y="113" width="330" height="50" as="geometry" />
        </mxCell>
        <mxCell id="ACPjKESdqa9sznW5wM3G-3" value="5" style="ellipse;whiteSpace=wrap;html=1;aspect=fixed;strokeWidth=2;fontFamily=Tahoma;spacingBottom=4;spacingRight=2;strokeColor=#d3d3d3;" vertex="1" parent="1">
          <mxGeometry x="-514" y="610" width="20" height="20" as="geometry" />
        </mxCell>
        <mxCell id="ACPjKESdqa9sznW5wM3G-6" value="6" style="ellipse;whiteSpace=wrap;html=1;aspect=fixed;strokeWidth=2;fontFamily=Tahoma;spacingBottom=4;spacingRight=2;strokeColor=#d3d3d3;" vertex="1" parent="1">
          <mxGeometry x="-769" y="577" width="20" height="20" as="geometry" />
        </mxCell>
        <mxCell id="ACPjKESdqa9sznW5wM3G-8" style="rounded=0;orthogonalLoop=1;jettySize=auto;html=1;entryX=0.5;entryY=0;entryDx=0;entryDy=0;endArrow=none;endFill=0;dashed=1;" edge="1" parent="1" source="ACPjKESdqa9sznW5wM3G-7" target="ACPjKESdqa9sznW5wM3G-6">
          <mxGeometry relative="1" as="geometry" />
        </mxCell>
        <mxCell id="ACPjKESdqa9sznW5wM3G-7" value="&lt;div style=&quot;font-size: 10px;&quot;&gt;&lt;div style=&quot;border-color: var(--border-color);&quot;&gt;{&lt;/div&gt;&lt;div style=&quot;border-color: var(--border-color);&quot;&gt;&amp;nbsp; &amp;nbsp; &quot;nome&quot;: &quot;{{nome}}&quot;&lt;/div&gt;&lt;div style=&quot;border-color: var(--border-color);&quot;&gt;&amp;nbsp; &amp;nbsp; ,&quot;email&quot;: &quot;{{email}}&quot;&lt;/div&gt;&lt;div style=&quot;border-color: var(--border-color);&quot;&gt;&amp;nbsp; &amp;nbsp;&lt;span style=&quot;border-color: var(--border-color);&quot;&gt;&amp;nbsp;,&quot;cpf&quot;: &quot;{{cpf}}&quot;&lt;/span&gt;&lt;/div&gt;&lt;div style=&quot;border-color: var(--border-color);&quot;&gt;}&lt;/div&gt;&lt;/div&gt;" style="shape=note;whiteSpace=wrap;html=1;backgroundOutline=1;darkOpacity=0.05;size=15;dashed=1;align=left;fontSize=10;" vertex="1" parent="1">
          <mxGeometry x="-810" y="460" width="173" height="60" as="geometry" />
        </mxCell>
      </root>
    </mxGraphModel>
  </diagram>
</mxfile>
